<svg id="Layer_1" data-name="Layer 1" xmlns="http://www.w3.org/2000/svg" viewBox="0 0 2500 676.76"><defs><style>.cls-1{fill:#b52e31;}</style></defs><title>angular</title><path class="cls-1" d="M735.35,502.1V194.48H774.9L962.89,442V194.48h37.6V502.1H960.94l-188-250v250h-37.6Zm571.29-12.21a228.3,228.3,0,0,1-80.08,14.16q-167,0-167-160.16,0-151.61,161.13-151.86c30.76,0,59.57,4.39,85.94,12.7v34.18a223.48,223.48,0,0,0-81.54-15.14c-84,0-126,40-126,119.14,0,85.45,41.5,127.93,124,127.93,13.18,0,27.83-2,43.95-5.37v-103h39.55V489.89h0Zm63.48-106.45v-189h39.55v189c0,59.08,29.3,88.87,88.38,88.87,58.59,0,88.38-29.79,88.38-88.87v-189H1626v189C1626,464,1583.5,504.54,1498,504.54S1370.12,464,1370.12,383.45Zm366.21-189V469.87h161.13V502.1H1696.78V194.48h39.55ZM1954.59,502.1h-41.5L2065.92,154,2218.75,502.1H2174.8l-39.55-96.68H2033.69l10.74-32.23h77.64L2064.45,234,1954.59,502.1h0Zm306.64,0V194.48h131.35c58.59,0,87.89,24.41,87.89,73.73,0,40-28.81,69.82-85.94,88.87L2500,502.1h-52.25L2350.1,363.91V338c58.59-9.28,88.38-31.74,88.38-67.87,0-28.32-16.11-42.48-48.83-42.48h-87.89V502.1h-40.53Z" transform="translate(0 -0.14)"/><path class="cls-1" d="M0,112.45L314.94,0.14,638.18,110.5,585.94,527l-271,149.9L48.34,529Zm315.43-33.2L119.14,515.77l73.24-1.46,39.55-98.63H407.23l43,99.61L520,516.75,315.43,79.25h0Zm0.49,140.14,66.41,138.67H257.81Z" transform="translate(0 -0.14)"/></svg>