<svg id="Layer_1" data-name="Layer 1" xmlns="http://www.w3.org/2000/svg" viewBox="0 0 175.75 30.66"><defs><style>.cls-1{fill:#333;}</style></defs><title>blackberry</title><path class="cls-1" d="M192.76,51.11h-0.89v2.58h-0.43V51.11h-0.89V50.8h2.22v0.31h0Zm2,1.83h0l0.81-2.14h0.66v2.89h-0.42V51.28h0l-0.9,2.41h-0.29l-0.89-2.41h0v2.41h-0.43V50.8H194l0.82,2.14h0Z" transform="translate(-20.5 -29.05)"/><path class="cls-1" d="M106.05,48.21A3.54,3.54,0,0,1,99.3,46.6c0-2.58,1.74-4.91,4.31-4.91a3.27,3.27,0,0,1,3.47,2.43h4.06c0.24-1.51-1-6.15-7.38-6.15a8.48,8.48,0,0,0-8.46,8.76c0,4.1,2.56,7.27,7.32,7.27a7.45,7.45,0,0,0,7.72-5.79h-4.29Z" transform="translate(-20.5 -29.05)"/><path class="cls-1" d="M74.91,49.35a9.17,9.17,0,0,1,.27-1.63c0.21-.94,3.07-14.15,3.07-14.15H74.44L71.28,48.13a8.27,8.27,0,0,0-.19,1.75c0,3.19,2.47,4.13,4.45,4.13a9.41,9.41,0,0,0,1.52-.14l0.69-3.18a9.79,9.79,0,0,1-1,0c-1.42,0-1.86-.6-1.86-1.39h0Z" transform="translate(-20.5 -29.05)"/><polygon class="cls-1" points="108.49 8.97 103.18 8.97 96.36 15.12 98.66 4.49 94.83 4.49 90.47 24.64 94.31 24.64 95.36 19.74 97.72 17.87 100.98 24.64 105.25 24.64 100.63 15.57 108.49 8.97 108.49 8.97"/><path class="cls-1" d="M54,47.47C54.3,46,57,33.54,57,33.54h7.26c5.27,0,6.56,2.93,6.56,4.7,0,3.93-3.71,5-4.17,5.11a4.25,4.25,0,0,1,2.83,4.18c0,3.35-3.09,6.16-7.89,6.16H59.4c-4,0-6.19-2.76-5.43-6.23h0Zm11.36-.25c0-.95-0.61-2.15-3.32-2.15H58.5l-1.05,4.88h4c2.58,0,3.91-1.16,3.91-2.73h0Zm1.3-8.12c0-1-.74-1.83-2.58-1.83H60.19L59.3,41.34h4c2.18,0,3.29-1,3.29-2.24h0Z" transform="translate(-20.5 -29.05)"/><path class="cls-1" d="M127.25,47.47c0.32-1.44,3-13.93,3-13.93h7.26c5.27,0,6.56,2.93,6.56,4.7,0,3.93-3.71,5-4.17,5.11a4.25,4.25,0,0,1,2.83,4.18c0,3.35-3.09,6.16-7.89,6.16h-2.19c-4,0-6.19-2.76-5.43-6.23h0Zm11.37-.25c0-.95-0.61-2.15-3.32-2.15h-3.52l-1.05,4.88h4c2.58,0,3.91-1.16,3.91-2.73h0Zm1.3-8.12c0-1-.74-1.83-2.57-1.83h-3.88l-0.88,4.07h4c2.18,0,3.29-1,3.29-2.24h0Z" transform="translate(-20.5 -29.05)"/><path class="cls-1" d="M170.43,38c-4.06,0-6.82,2.41-7.76,6.92-0.39,1.94-1.87,8.76-1.87,8.76h3.81l1.84-8.53c0.58-2.66,2-3.58,3.89-3.58a6.75,6.75,0,0,1,1.21.1c0.11-.54.63-3,0.76-3.54a13.88,13.88,0,0,0-1.88-.14h0Z" transform="translate(-20.5 -29.05)"/><path class="cls-1" d="M183.38,59.71L196.16,38H192l-5.87,10.2L184.8,38h-4.4c-5,0-7.65,2.31-8.57,6.71-0.46,2.2-1.94,9-1.94,9h3.81s1.4-6.44,2-9a3.43,3.43,0,0,1,4.42-2.87l0.8-3.7c0.59,3.52,2.41,14.75,2.41,14.75l-4,6.85h4.08Z" transform="translate(-20.5 -29.05)"/><path class="cls-1" d="M85.9,47l3.63-.54-0.23,1a4.44,4.44,0,0,1-4.5,3.11c-1.36,0-2.15-.73-2.15-1.6,0-.71.66-1.56,3.26-2h0Zm-1.42-4.08A4,4,0,0,1,88,41.27c1.52,0,2.29.56,2.29,1.22,0,0.95-1.53,1.2-4.17,1.58-4.55.65-7.43,2.07-7.43,5.35,0,2.33,1.93,4.6,5.37,4.6a6,6,0,0,0,4.48-1.85c0,0.41.07,1,.11,1.53h3.94a8.79,8.79,0,0,1,0-4.06c0.25-1.1.95-4.26,1.3-6C94.6,40.32,92.79,38,88.14,38c-6,0-7.68,4.29-8,4.95h4.3Z" transform="translate(-20.5 -29.05)"/><path class="cls-1" d="M155.19,49a3.43,3.43,0,0,1-3.13,1.6,3.34,3.34,0,0,1-3.59-3.22h11.61a10.85,10.85,0,0,0,.32-2.38c0-3.67-2.49-7-7.51-7a8.4,8.4,0,0,0-8.28,8.45c0,4.43,2.66,7.58,7.38,7.58a7.56,7.56,0,0,0,7.54-5h-4.34Zm-2.25-7.55c2.57,0,3.54,1.56,3.44,2.82H149a4.1,4.1,0,0,1,3.9-2.82h0Z" transform="translate(-20.5 -29.05)"/><path class="cls-1" d="M29.89,31.24c0-1-.59-2.19-3.08-2.19H23l-1.08,5h4c3.12,0,4-1.47,4-2.84h0Z" transform="translate(-20.5 -29.05)"/><path class="cls-1" d="M40.21,31.24c0-1-.59-2.19-3.08-2.19H33.3l-1.09,5h4c3.12,0,4-1.47,4-2.84h0Z" transform="translate(-20.5 -29.05)"/><path class="cls-1" d="M28.51,38.82c0-1-.59-2.19-3.08-2.19H21.59l-1.09,5h4c3.11,0,4-1.47,4-2.84h0Z" transform="translate(-20.5 -29.05)"/><path class="cls-1" d="M38.82,38.82c0-1-.59-2.19-3.08-2.19H31.91l-1.09,5h4c3.12,0,4-1.47,4-2.84h0Z" transform="translate(-20.5 -29.05)"/><path class="cls-1" d="M49.62,35.75c0-1-.59-2.19-3.08-2.19H42.71l-1.09,5h4c3.12,0,4-1.48,4-2.84h0Z" transform="translate(-20.5 -29.05)"/><path class="cls-1" d="M48.13,43.64c0-1-.59-2.19-3.08-2.19H41.22l-1.09,5h4c3.12,0,4-1.47,4-2.84h0Z" transform="translate(-20.5 -29.05)"/><path class="cls-1" d="M37.34,46.71c0-1-.59-2.19-3.07-2.19H30.43l-1.09,5h4c3.11,0,4-1.47,4-2.85h0Z" transform="translate(-20.5 -29.05)"/></svg>