<svg id="Layer_1" data-name="Layer 1" xmlns="http://www.w3.org/2000/svg" viewBox="0 0 1024.2 335.46"><defs><style>.cls-1{fill:#333;}</style></defs><title>cordova</title><path class="cls-1" d="M571.94,304.25c-23.73-.27-42-19-41.6-42.58A42.17,42.17,0,1,1,571.94,304.25Zm0.46-17.79a24.32,24.32,0,0,0,24.47-23.84c0.2-13.12-11.16-24.64-24.35-24.69a24.55,24.55,0,0,0-24.39,24.52A24.24,24.24,0,0,0,572.4,286.46Z" transform="translate(-49.62 -72.16)"/><path class="cls-1" d="M846,304.25c-23.59-.34-41.58-18.71-41.37-42.22a41.87,41.87,0,0,1,42.92-41.91c23.17,0.42,41.67,19.78,41.27,43.21C888.43,286.43,869.43,304.58,846,304.25Zm0.78-17.79a24.22,24.22,0,0,0,24.24-24,24.83,24.83,0,0,0-24.46-24.52,24.42,24.42,0,0,0-24.14,24.69A24.1,24.1,0,0,0,846.77,286.45Z" transform="translate(-49.62 -72.16)"/><path class="cls-1" d="M650.85,272.28c0,8.7-.15,16.66.06,24.62,0.12,4.44-1.43,6.34-6.05,6.28-12.77-.17-11.84.89-11.83-11.4q0-32,0-63.92c0-5.9.73-6.63,6.6-6.65q16.23,0,32.46,0c13,0.06,23.23,7.36,26.49,18.74s-1.27,22-12.57,29.28c-0.68.44-1.32,0.92-2.29,1.61,4.47,8.31,8.91,16.46,13.26,24.66,3,5.59,1.72,6.93-4.51,7.74-8.64,1.12-14.06-1.63-17.2-10-2-5.4-5.62-10.2-8-15.5-1.88-4.22-4.44-6.23-9.14-5.54A53.63,53.63,0,0,1,650.85,272.28ZM651.09,257c7.78,0,15.07.27,22.33-.1,4.56-.23,8.24-4.68,8.27-9.24,0-4.71-2.4-8.7-6.89-9.13-7.81-.75-15.74-0.21-23.72-0.21V257Z" transform="translate(-49.62 -72.16)"/><path class="cls-1" d="M719.27,262.18c0-11.65,0-23.31,0-35,0-3.12.48-6,4.33-5.94,11,0.09,22.07-.58,32.89.82,20.95,2.71,35.66,21.81,34.28,42.89A41,41,0,0,1,751,303.06c-8.65.19-17.32-.08-26,0.11-4.42.1-5.84-1.87-5.79-6C719.36,285.49,719.27,273.83,719.27,262.18Zm18,23.7c17,1.85,26.68-1.78,31.92-11.65,4.77-9,3.66-20.64-2.67-28.09s-19.29-10.54-29.25-7.2v46.94Z" transform="translate(-49.62 -72.16)"/><path class="cls-1" d="M1031,303.12c-5.68,1.6-9-1.88-10.51-7.54s-4.85-7.37-10.58-6.87a166.58,166.58,0,0,1-20,.06c-3.13-.11-5.11.8-6,3.85a10.14,10.14,0,0,1-.6,1.37c-4.33,9.5-6.8,10.81-17.35,9.06-4.59-.76-4-3.6-2.52-6.69L979.91,261c5.67-12.23,11.23-24.52,17.11-36.65,0.86-1.77,3.18-4,4.79-3.93s3.93,2.22,4.76,4c10.69,22.93,21.17,46,31.71,69C1042.42,302.47,1042,303.12,1031,303.12Zm-38.11-30.47h17.27l-8.73-19.13Z" transform="translate(-49.62 -72.16)"/><path class="cls-1" d="M491.56,304.25c-18.71,0-35-11.89-40.37-29.34a42.18,42.18,0,0,1,16.32-47.23c15-10.44,35.35-10.09,49.52.87,5.31,4.1,5.42,5.5.85,10.24a22.76,22.76,0,0,0-2.08,2.16c-3,4-5.72,4.1-9.94,1-8.09-5.88-17.12-6.51-25.81-1.2-9.19,5.62-12.68,14.33-11.28,24.83,1.33,10,7,16.82,16.66,19.79a22.49,22.49,0,0,0,20.86-3.65c3.82-2.88,6.22-2.2,9.32,1,6.53,6.8,9.16,7.84-1.8,15.17C507.23,302.35,500,304.26,491.56,304.25Z" transform="translate(-49.62 -72.16)"/><path class="cls-1" d="M932.87,268.83c2.22-4.84,4.16-9,6-13.2,4.43-9.87,9-19.69,13.16-29.65,1.53-3.63,3.7-5.23,7.6-4.82,2.14,0.23,4.33,0,6.49,0,5.61,0.13,6.83,2,4.44,7.21q-14.6,31.74-29.27,63.44c-1.26,2.72-2.21,5.63-3.83,8.11-1.13,1.73-3.17,3.93-4.82,3.94s-4-2.12-4.81-3.88c-8.39-17.75-16.53-35.61-24.73-53.44-2.78-6-5.6-12.07-8.3-18.15-2.33-5.24-1.15-7.24,4.43-7.2,14,0.1,10.88-1.82,16.45,10.29,5.21,11.34,10.2,22.77,15.31,34.16C931.41,266.53,932,267.29,932.87,268.83Z" transform="translate(-49.62 -72.16)"/><path class="cls-1" d="M1060.57,221.5l4.68,9,4.76-8.92,1.11,0,2.7,14.51-1.66.77-3.23-5.83-3.67,6.44-3.8-6.9L1059,237l-2-.48,2.22-14.82Z" transform="translate(-49.62 -72.16)"/><path class="cls-1" d="M1043.94,222.1h11.62c-6.23,3.15-4.7,7.6-5.05,11.58-0.09,1-1.13,2-1.74,3a14.34,14.34,0,0,1-1.51-3.16c-0.73-3.53,2-8.15-3.75-10Z" transform="translate(-49.62 -72.16)"/><path class="cls-1" d="M312.25,407.62l3.91-47.34H287.85l-4.09,47.32H166.24l-4.09-47.46H133.86l3.88,47.44H81.2c-1.69-10.76-3.41-21.55-5.07-32.35q-9.75-63.4-19.47-126.81c-2.35-15.3-4.78-30.58-7-45.9a8.17,8.17,0,0,1,1.23-5Q89,136.23,127.42,75.11a7,7,0,0,1,5-2.84q92.48-.22,185,0a7.54,7.54,0,0,1,5.36,3.13q38.31,60.87,76.25,122a9.51,9.51,0,0,1,1.14,6q-14.59,96.25-29.4,192.46c-0.6,3.91-1.33,7.81-2,11.81H312.25ZM196.53,135.88c-17,0-33.46-.05-49.91.12-1.05,0-2.49,1.5-3.07,2.65q-15,29.63-29.68,59.4a9.84,9.84,0,0,0-.68,5.27q6.36,51.79,12.9,103.55c0.88,7,1.89,14,2.84,21H321c0.35-1.84.75-3.46,1-5.1q7.49-59.7,14.84-119.41a13.42,13.42,0,0,0-1.5-7.06c-8.8-17.93-18-35.66-26.57-53.71-2.51-5.29-5.45-7.09-11.26-6.91-14.44.46-28.91,0.15-44,.15l3.18,23.8H193.34Z" transform="translate(-49.62 -72.16)"/><path class="cls-1" d="M285.75,256.13c-1.46,7.88-2.76,16.07-4.63,24.12-0.42,1.82-2.84,3.17-4.34,4.74-1.34-1.55-3.36-2.89-3.92-4.68a81,81,0,0,1-.18-48.61c0.62-2,3-3.56,4.53-5.32,1.48,1.89,3.82,3.59,4.29,5.71C283.22,239.84,284.32,247.73,285.75,256.13Z" transform="translate(-49.62 -72.16)"/><path class="cls-1" d="M184.5,257.23c-1,7.74-1.44,14.61-3,21.2-0.8,3.34-3.67,6.19-5.6,9.26-1.84-3-4.86-5.82-5.29-9a221.72,221.72,0,0,1-2-28.28c0-5.06,1.27-10.24,2.72-15.15,0.69-2.35,3.13-4.18,4.77-6.25,1.59,2.15,4.06,4.09,4.6,6.48C182.41,242.92,183.38,250.51,184.5,257.23Z" transform="translate(-49.62 -72.16)"/></svg>