<svg id="Capa_1" data-name="Capa 1" xmlns="http://www.w3.org/2000/svg" viewBox="0 0 485.21 363.91"><defs><style>.cls-1{fill:#333;}</style></defs><title>email</title><path class="cls-1" d="M537.21,363.91a60.11,60.11,0,0,1-7.79,29.17L376.23,221.67,527.77,89.09a60.21,60.21,0,0,1,9.45,32.22v242.6h0ZM294.61,252.79L505.47,68.29a59.9,59.9,0,0,0-28.91-7.64H112.65a59.68,59.68,0,0,0-28.89,7.64Zm58.79-11.16-48.81,42.73a15.22,15.22,0,0,1-20,0l-48.82-42.74L80.67,415.23a59.92,59.92,0,0,0,32,9.33H476.56a59.92,59.92,0,0,0,32-9.33ZM61.45,89.08A60.22,60.22,0,0,0,52,121.31v242.6a59.92,59.92,0,0,0,7.79,29.17L213,221.64Z" transform="translate(-52 -60.65)"/></svg>