<svg id="e4bab326-c601-469f-9a98-7f50ab945a27" data-name="Layer 1" xmlns="http://www.w3.org/2000/svg" xmlns:xlink="http://www.w3.org/1999/xlink" viewBox="0 0 111.13 40.32"><defs><style>.bea0623b-a57d-4da1-a214-0f9ac89bee69{fill:none;}.aa974d40-12d3-4de6-a8c8-f1984494e917{clip-path:url(#b8301769-6bca-489c-8084-e5fdf2b6e257);}.ba90b9d6-228a-4930-b121-edc3aae5ffa9{fill:#39cefd;}.b70b96ac-b975-42fb-9ae8-c781e187ed81{fill:#03569b;}.bec47db9-b286-4d3f-b6c6-363bd3dedeb3{fill:url(#adca8b2e-5ed2-43e6-843e-29788640cdaa);}.f2e97be6-4703-49bc-ba10-0389e08d727c{fill:#16b9fd;}.f2730be1-10c4-40a7-9f58-589ad59f93ef{fill:url(#e86d19c6-ed4d-4d27-ae61-ba51588f9bd9);}.bd4a17dd-ce29-44f8-b28e-d15b6b4eca33{fill:gray;}</style><clipPath id="b8301769-6bca-489c-8084-e5fdf2b6e257" transform="translate(-4.12 -8.97)"><path class="bea0623b-a57d-4da1-a214-0f9ac89bee69" d="M36.68,27.57,25.83,38.43,36.68,49.29H24.28l-4.65-4.66-6.21-6.2L24.28,27.57ZM24.28,9,4.12,29.12l6.2,6.21L36.68,9Z"/></clipPath><linearGradient id="adca8b2e-5ed2-43e6-843e-29788640cdaa" x1="-8167.73" y1="3402.43" x2="-8161.22" y2="3408.93" gradientTransform="matrix(0, 0, 0, 0, -1582.95, -741.95)" gradientUnits="userSpaceOnUse"><stop offset="0" stop-color="#1a237e" stop-opacity="0.4"/><stop offset="1" stop-color="#1a237e" stop-opacity="0"/></linearGradient><radialGradient id="e86d19c6-ed4d-4d27-ae61-ba51588f9bd9" cx="20.4" cy="29.13" r="18.32" gradientTransform="matrix(0, 0, 0, 0, -1582.95, -741.95)" gradientUnits="userSpaceOnUse"><stop offset="0" stop-color="#fff" stop-opacity="0.1"/><stop offset="1" stop-color="#fff" stop-opacity="0"/></radialGradient></defs><title>flutter</title><g class="aa974d40-12d3-4de6-a8c8-f1984494e917"><path class="ba90b9d6-228a-4930-b121-edc3aae5ffa9" d="M19.63,44.63,36.68,27.57H24.28L13.43,38.43Z" transform="translate(-4.12 -8.97)"/></g><g class="aa974d40-12d3-4de6-a8c8-f1984494e917"><path class="ba90b9d6-228a-4930-b121-edc3aae5ffa9" d="M4.12,29.12,24.28,9h12.4L10.32,35.33Z" transform="translate(-4.12 -8.97)"/></g><g class="aa974d40-12d3-4de6-a8c8-f1984494e917"><path class="b70b96ac-b975-42fb-9ae8-c781e187ed81" d="M24.28,49.28h12.4L25.83,38.43l-6.2,6.2Z" transform="translate(-4.12 -8.97)"/></g><g class="aa974d40-12d3-4de6-a8c8-f1984494e917"><path class="bec47db9-b286-4d3f-b6c6-363bd3dedeb3" d="M25.83,38.43l-6.2,6.2,9.2-3.18Z" transform="translate(-4.12 -8.97)"/></g><g class="aa974d40-12d3-4de6-a8c8-f1984494e917"><path class="f2e97be6-4703-49bc-ba10-0389e08d727c" d="M13.43,38.43l6.2-6.21,6.2,6.21-6.2,6.2Z" transform="translate(-4.12 -8.97)"/></g><path class="f2730be1-10c4-40a7-9f58-589ad59f93ef" d="M36.68,27.57,25.83,38.43,36.68,49.29H24.28l-4.65-4.66-6.21-6.2L24.28,27.57ZM24.28,9,4.12,29.12l6.2,6.21L36.68,9Z" transform="translate(-4.12 -8.97)"/><path class="bd4a17dd-ce29-44f8-b28e-d15b6b4eca33" d="M40.61,19.77H51.48v2.07H42.89v6.42h7.76v2.07H42.89v8.08H40.71V19.77Z" transform="translate(-4.12 -8.97)"/><path class="bd4a17dd-ce29-44f8-b28e-d15b6b4eca33" d="M54.07,19.77h2.17V38.51H54.07Z" transform="translate(-4.12 -8.97)"/><path class="bd4a17dd-ce29-44f8-b28e-d15b6b4eca33" d="M64.42,38.93a4.93,4.93,0,0,1-3.73-1.45,5.85,5.85,0,0,1-1.24-3.94V25.16h2.18v8.07a4.35,4.35,0,0,0,.82,2.8,3.15,3.15,0,0,0,2.39.93,3.2,3.2,0,0,0,2-.62,3.88,3.88,0,0,0,1.35-1.56,4.7,4.7,0,0,0,.52-2.07V25.16h2.17V38.51H68.77v-2h-.1a4.56,4.56,0,0,1-1.76,1.66A4.15,4.15,0,0,1,64.42,38.93Z" transform="translate(-4.12 -8.97)"/><path class="bd4a17dd-ce29-44f8-b28e-d15b6b4eca33" d="M79.54,38.72A4.13,4.13,0,0,1,78,38.41a4.45,4.45,0,0,1-1.14-.73A4.31,4.31,0,0,1,76,36.54,3.4,3.4,0,0,1,75.71,35V27.12H73.32v-2h2.39V21.43h2.17v3.73h3.21v2H77.88v7.25A2.64,2.64,0,0,0,78.29,36a1.75,1.75,0,0,0,1.45.62,2.37,2.37,0,0,0,1.45-.42v2.18c-.31.1-.52.21-.83.31Z" transform="translate(-4.12 -8.97)"/><path class="bd4a17dd-ce29-44f8-b28e-d15b6b4eca33" d="M89,38.72a4.13,4.13,0,0,1-1.56-.31,4.39,4.39,0,0,1-1.13-.73,4.13,4.13,0,0,1-.83-1.14A3.4,3.4,0,0,1,85.13,35V27.12H83v-2h2.38V21.43h2.18v3.73h3.21v2H87.51v7.25A2.64,2.64,0,0,0,87.92,36a1.75,1.75,0,0,0,1.45.62,2.37,2.37,0,0,0,1.45-.42v2.18c-.31.1-.52.21-.83.31Z" transform="translate(-4.12 -8.97)"/><path class="bd4a17dd-ce29-44f8-b28e-d15b6b4eca33" d="M98.79,38.93A6.41,6.41,0,0,1,95.38,38,6.93,6.93,0,0,1,93,35.51a8.24,8.24,0,0,1-.82-3.62A8.07,8.07,0,0,1,93,28.37a6.89,6.89,0,0,1,2.28-2.59,6.74,6.74,0,0,1,6.83,0,6,6,0,0,1,2.18,2.38,7.62,7.62,0,0,1,.83,3.52,1.42,1.42,0,0,1-.11.72H94.34A6.31,6.31,0,0,0,95.06,35a4,4,0,0,0,1.66,1.55,5,5,0,0,0,2.07.52,4.36,4.36,0,0,0,3.94-2.38l1.86.93a7.15,7.15,0,0,1-2.38,2.59,7.56,7.56,0,0,1-3.42.73Zm3.83-8.49a3.35,3.35,0,0,0-.52-1.66,4.44,4.44,0,0,0-1.34-1.45,4,4,0,0,0-2.28-.62,3.65,3.65,0,0,0-2.69,1,5.15,5.15,0,0,0-1.45,2.69Z" transform="translate(-4.12 -8.97)"/><path class="bd4a17dd-ce29-44f8-b28e-d15b6b4eca33" d="M107.59,25.16h2.07v2.17h.11a3.22,3.22,0,0,1,1.55-1.76,4,4,0,0,1,2.38-.72,3.4,3.4,0,0,1,1.55.31v2.38a3.56,3.56,0,0,0-1.86-.42,3.51,3.51,0,0,0-1.76.52,6.28,6.28,0,0,0-1.35,1.45,4.27,4.27,0,0,0-.51,2v7.45h-2.18Z" transform="translate(-4.12 -8.97)"/></svg>