<svg id="Layer_1" data-name="Layer 1" xmlns="http://www.w3.org/2000/svg" viewBox="0 0 261.93 212.46"><defs><style>.cls-1{fill:#333;}</style></defs><title>gb</title><path class="cls-1" d="M147.58,251.06c-3.78-1.55-7.69-2.86-11.28-4.77-1.37-.73-2-2.82-3.37-4.89,4-.39,6.63-0.6,9.49,2.32s7.13,2.89,12.49.72a42,42,0,0,0-4.9-2.6c-3.77-1.31-7.71-2.2-11.38-3.71-4.4-1.82-5-5.94-1.74-9.15,4.55-4.42,18.91-3.54,22.7,1.52,0.92,1.23,1.26,2.91,1.87,4.38l-1.07,1.49c-2.56-1.2-5-2.75-7.71-3.51-2.86-.82-5.94-0.91-8.92-1.32l-0.46,2.12c1.87,0.75,3.71,1.6,5.61,2.24,2.67,0.9,5.69,1.18,8,2.61,1.86,1.15,4,3.65,4,5.49s-2.48,3.87-4.21,5.43c-1,.93-2.72,1.13-4.12,1.66h-5Z" transform="translate(-42.05 -38.6)"/><path class="cls-1" d="M169.58,251.06L163,244.33l1.22-2a62,62,0,0,0,7.36,2.83,56.48,56.48,0,0,0,9.62,1.5c0.76,0.06,1.64-1.35,2.46-2.09-0.91-.78-1.71-2-2.76-2.27-4-1-8.24-1.35-12.11-2.73-1.81-.64-4.16-3.07-4.16-4.69,0-2,1.73-5,3.51-5.8a20.75,20.75,0,0,1,18.75.72c1.5,0.8,2.36,2.79,3.76,4.53-6.92,3.1-12.47-6.11-19.64.31,2.9,0.89,5.08,1.73,7.33,2.19s4.32,0.33,6.44.71c3.15,0.56,5.61,1.94,6.16,5.56,0.51,3.36-1,5.37-3.85,6.77a7.72,7.72,0,0,0-1.45,1.22h-16Z" transform="translate(-42.05 -38.6)"/><path class="cls-1" d="M215.44,115.36v22.88H198.93v48.28c-11.84.44-23.11,1.37-34.36,1.17-24.85-.43-49-4.65-72-14.62-13.26-5.76-25.44-13.24-35.14-24.16-10.7-12.06-17.19-25.78-14.94-42.39,1.41-10.48,6.94-19,13.94-26.58,10.8-11.72,23.93-20,38.63-26a202.2,202.2,0,0,1,99.35-14.14c3.76,0.39,4.67,1.81,4.55,5.31-0.25,7.32-.1,14.66-0.14,22a2.26,2.26,0,0,1-.26.93c-9.91-.69-19.63-1.87-29.36-1.94-15.52-.11-30.38,3.54-44.49,10-8.77,4-16.38,9.58-22.07,17.51-9,12.6-9.41,26.87-.67,39.63,9.63,14.07,24.15,20.23,40.34,24.53V138.38H126.57v-23h88.87Z" transform="translate(-42.05 -38.6)"/><path class="cls-1" d="M237,224.43l4.77,17.52-7.5,2.41-5-17c-3.17,0-6,.09-8.87-0.12-0.32,0-.53-1.68-0.86-2.83a25,25,0,0,1,3-1A222.25,222.25,0,0,0,265.84,210c2.48-1.05,4.55-1.56,4.77,2.54l-8.94,3.71,6.93,17-7.34,3-7-16.3Z" transform="translate(-42.05 -38.6)"/><path class="cls-1" d="M97.74,228.55c2.57,6.45-1.18,11.31-7.91,9.81-6.43-1.43-12.6-4-19.53-6.29l8.06-21.71c6.47,2.52,12.61,4.54,18.42,7.26C103,220.52,103.15,223.87,97.74,228.55Zm-17.85.74c7.66,4.1,9.12,4.36,13.67,1.51-4.49-1.72-8.11-3.19-11.82-4.38C81.45,226.32,80.53,228.26,79.89,229.29Zm3.42-12.56c0.65,2.66.56,4.68,1.36,5.12a27.69,27.69,0,0,0,7,2.39c0.76,0.18,1.73-.52,2.61-0.81-0.47-.93-0.7-2.32-1.45-2.7C90.36,219.44,87.69,218.52,83.3,216.73Z" transform="translate(-42.05 -38.6)"/><path class="cls-1" d="M214.51,203.66c-4.82.44-9,.4-12.9,1.31-3.08.71-6.62,2.93-5.2,6.54,0.9,2.3,4.29,4.29,6.95,5,2.22,0.63,5-.74,7.54-1.23l-0.23-2.16a26.37,26.37,0,0,1-4.86-.09c-0.85-.16-1.53-1.2-2.28-1.84,0.66-.74,1.23-2,2-2.13,3.74-.61,7.52-0.91,11.21-1.31,2.89,9.58,1.86,11.85-7.47,13a31.46,31.46,0,0,1-14.55-1.29c-7.61-2.86-8.39-11.83-2-16.9,5.4-4.25,11.76-5.3,18.43-4.32C214.57,198.83,216.39,200.56,214.51,203.66Z" transform="translate(-42.05 -38.6)"/><path class="cls-1" d="M294.39,179.18l9.6,5.14c-3.41,3.94-6.67,4.8-11,2-2-1.27-4.87-1-7.36-1.5L285,186.39l4.06,7.69-6.54,4.16-11.24-19.72c4.76-2.93,8.92-6.09,13.57-8.13,2.5-1.09,6.6-1.34,8.58,0,1.71,1.19,1.44,5.22,2,8Zm-15.56-1.86,4.69,6.16,5.22-7.75Z" transform="translate(-42.05 -38.6)"/><path class="cls-1" d="M68.61,196.31c0.49-4.31-7.33-4.06-2.49-9.11l11,6.09c-2.29,9.11-4.77,10.83-12.7,7a32.38,32.38,0,0,1-12.15-9.7c-4.61-6.48-.31-14.06,7.66-14.79s14.22,2.9,19.74,8c0.77,0.71.11,3,.11,5.2-4.5-2.76-7.57-5-11-6.62-4.83-2.26-9.31-1-10.85,2.6-1.41,3.27.58,7.2,5.15,9.6A32.08,32.08,0,0,0,68.61,196.31Z" transform="translate(-42.05 -38.6)"/><path class="cls-1" d="M250.62,211.35l-6.83,2.07-2.9-6.84L231.67,209l1.34,7.23-6.66,2-6.14-21.68,6.87-1.58,2.9,8,8.81-2.52-1.88-8,6.46-2.27Z" transform="translate(-42.05 -38.6)"/><path class="cls-1" d="M131.09,248.15c-4.44-.54-7.1-0.9-9.81-4.59-1.9-2.58-8.93-4.1-11.79-2.58-3.66,2-6.15,2-10.14.51,5.2-6.1,10.11-12.1,15.3-17.85,2.07-2.3,8.72-.68,9.69,2.29C126.64,233,128.69,240.18,131.09,248.15Zm-10.46-11.62-2.07-7.43-4.72,6.17Z" transform="translate(-42.05 -38.6)"/><path class="cls-1" d="M193.7,227.66c7.21-1,14.08-1.93,21-2.69,0.7-.08,1.54,1.17,2.31,1.8-0.64.75-1.18,2-1.94,2.17-3.09.63-6.32,0.65-9.36,1.44-1.38.36-2.42,2-3.61,3.08l1,1.67c3.4-.38,6.8-1,10.2-1,1.4,0,2.82,1.09,4.23,1.69-1.17.8-2.25,2-3.54,2.31-3.22.74-6.54,1.05-10.34,1.62l0.53,5.13,14.69-1.78,1.13,1c-0.85,1.13-1.56,3.07-2.57,3.25-6.67,1.17-13.42,2-20.57,2.93-0.58-4-1.11-7.62-1.6-11.21S194.26,231.83,193.7,227.66Z" transform="translate(-42.05 -38.6)"/><path class="cls-1" d="M77.38,206.12c5.18-5.35,10.27-10.79,15.6-16,2.4-2.35,8.9-.21,9.67,3.17,1.69,7.4,3.09,14.86,4.72,22.82-4-.57-7.22-0.48-8.09-5.31-0.59-3.29-11.3-5.09-14.2-3.49-1.94,1.07-4.72.64-7.12,0.88ZM96.53,195.3L90.27,202l8,2.55Z" transform="translate(-42.05 -38.6)"/><path class="cls-1" d="M189.75,223c-4.19.3-6.53-.18-9.69-2.35s-10.33-1.94-13.19.38c-3.22,2.61-5.42,2.5-9.23,2.22,3.5-7.17,6.65-13.91,10.07-20.5,1.53-3,8.56-3.16,10.31-.27C182,209,185.6,215.68,189.75,223Zm-20.55-8.31h8.18l-4.45-8.19Z" transform="translate(-42.05 -38.6)"/><path class="cls-1" d="M268.39,183.56c-2.55,4.74-10.55,2.52-9.7,10,4.38-1.3,8-2.41,11.72-3.35a12.94,12.94,0,0,1,.92,2.18c-2.13,4.09-10.45,1.82-8.9,10l12.68-5.09c1.76,1.88,2.73,3.45-.57,4.8-5.52,2.26-11,4.67-17.07,7.28l-8.6-21.25c5.52-2.31,10.49-4.57,15.62-6.36C265.49,181.44,267.13,182.95,268.39,183.56Z" transform="translate(-42.05 -38.6)"/><path class="cls-1" d="M118.56,212.87l12.78,2.64-0.66,5.2L110.56,217l4.24-22.28,7,1.31Z" transform="translate(-42.05 -38.6)"/><path class="cls-1" d="M143,216.67c2.46,0.24,4.41.39,6.34,0.62s3.91,0.54,6.15.86v5.16l-20.1-1.82,2-22.57,7.06,0.43Z" transform="translate(-42.05 -38.6)"/></svg>