<svg id="Layer_1" data-name="Layer 1" xmlns="http://www.w3.org/2000/svg" viewBox="0 0 120.78 117.79"><defs><style>.cls-1,.cls-2{fill:#333;}.cls-1{fill-rule:evenodd;}</style></defs><title>github</title><path class="cls-1" d="M91.77,22.35A60.39,60.39,0,0,0,72.68,140c3,0.56,4.13-1.31,4.13-2.91,0-1.44-.06-6.2-0.08-11.24-16.8,3.65-20.34-7.12-20.34-7.12-2.75-7-6.7-8.84-6.7-8.84-5.48-3.75.41-3.67,0.41-3.67,6.06,0.43,9.26,6.22,9.26,6.22,5.39,9.23,14.13,6.56,17.57,5,0.54-3.9,2.11-6.57,3.83-8.08-13.41-1.53-27.51-6.71-27.51-29.84a23.37,23.37,0,0,1,6.22-16.21c-0.63-1.52-2.69-7.66.58-16,0,0,5.07-1.62,16.61,6.19a57.26,57.26,0,0,1,30.24,0c11.53-7.81,16.59-6.19,16.59-6.19,3.29,8.32,1.22,14.46.59,16a23.32,23.32,0,0,1,6.21,16.21c0,23.19-14.13,28.3-27.57,29.8,2.17,1.87,4.1,5.55,4.1,11.18,0,8.08-.07,14.58-0.07,16.57,0,1.61,1.09,3.49,4.15,2.9A60.4,60.4,0,0,0,91.77,22.35Z" transform="translate(-31.38 -22.35)"/><path class="cls-2" d="M54.25,109a0.92,0.92,0,1,1-.54-0.91,0.76,0.76,0,0,1,.54.91h0Zm-0.74-.55" transform="translate(-31.38 -22.35)"/><path class="cls-2" d="M56.7,111.78a1.11,1.11,0,1,1-.17-1.25,0.91,0.91,0,0,1,.17,1.25h0Zm-0.58-.62" transform="translate(-31.38 -22.35)"/><path class="cls-2" d="M59.08,115.25a1.07,1.07,0,0,1-1.35-.52,1,1,0,0,1,0-1.44,1.27,1.27,0,0,1,1.34,2h0Zm0,0" transform="translate(-31.38 -22.35)"/><path class="cls-2" d="M62.34,118.61a1.13,1.13,0,0,1-1.55-.23A1,1,0,1,1,62,117.07a1.14,1.14,0,0,1,.33,1.54h0Zm0,0" transform="translate(-31.38 -22.35)"/><path class="cls-2" d="M66.84,120.57a1.4,1.4,0,0,1-2.5-.75,1.4,1.4,0,0,1,2.5.75h0Zm0,0" transform="translate(-31.38 -22.35)"/><path class="cls-2" d="M71.78,120.93a1.39,1.39,0,0,1-2.6,0,1.16,1.16,0,0,1,1.29-.92,1.14,1.14,0,0,1,1.31.88h0Zm0,0" transform="translate(-31.38 -22.35)"/><path class="cls-2" d="M76.38,120.14a1.39,1.39,0,1,1-1.44-.66,1.17,1.17,0,0,1,1.44.66h0Zm0,0" transform="translate(-31.38 -22.35)"/></svg>