<svg id="Layer_1" data-name="Layer 1" xmlns="http://www.w3.org/2000/svg" viewBox="0 0 435.5 147"><defs><style>.cls-1{fill:#3880ff;}</style></defs><title>ionic</title><g id="g29"><g id="g12"><path id="path4" class="cls-1" d="M73.6,40.2a33.5,33.5,0,1,0,33.5,33.5A33.5,33.5,0,0,0,73.6,40.2Z" transform="translate(0)"/><g id="g8"><circle id="circle6" class="cls-1" cx="121.6" cy="27.9" r="15.3"/></g><path id="path10" class="cls-1" d="M140.4,43.2l-.6-1.4-1,1.2a23.33,23.33,0,0,1-9.2,6.3l-1,.4.4,1a58.67,58.67,0,0,1,4.6,23A60,60,0,1,1,99.3,19.4l.9.4.4-1a22.83,22.83,0,0,1,6.8-8.9l1.2-1-1.4-.7a73.81,73.81,0,1,0,33.2,35Z" transform="translate(0)"/></g><g id="g27"><g id="g16"><rect id="rect14" class="cls-1" x="184.9" y="41.7" width="15.5" height="64"/></g><g id="g20"><rect id="rect18" class="cls-1" x="352.2" y="41.7" width="15.5" height="64"/></g><path id="path22" class="cls-1" d="M316.4,40.2c-10.9,0-19.3,6.6-21.2,8.4h0l-1-6.9H281.3v64h15.5V67c0-7.6,10.3-13.8,17.9-13.8,7.4,0,13.2,7.2,13.2,15.8v36.7h15.5V70.5C343.3,53.7,336,40.2,316.4,40.2Z" transform="translate(0)"/><path id="path24" class="cls-1" d="M408.3,94.1c-11.7,0-19.4-9.1-19.4-20.4s7.7-20.4,19.4-20.4c9.9,0,16,9.6,16,9.6l11.2-7.5c-3.2-5-7-8-12.1-11.1a28.54,28.54,0,0,0-14.6-4.2c-19.4,0-34.2,14.6-34.3,33.5.1,18.9,14.9,33.5,34.3,33.5a28.54,28.54,0,0,0,14.6-4.2c5.1-3.1,8.9-6.1,12.1-11.1l-11.2-7.5C424.3,84.4,418.3,94.1,408.3,94.1Z" transform="translate(0)"/><path id="path3000" class="cls-1" d="M240.8,40.2a33,33,0,0,0-33.5,33.2c0,18.2,13.6,33.8,33.8,33.8,18.3,0,33.2-14,33.2-33.4C274.3,51.6,256.9,40.2,240.8,40.2Zm.2,13.2c9.6,0,18.7,7.8,18.7,20.4,0,12.3-9.1,20.3-18.8,20.3-10.6,0-19-8.6-19-20.4s8.3-20.3,19.1-20.3Z" transform="translate(0)"/></g></g></svg>