<svg id="Capa_1" data-name="Capa 1" xmlns="http://www.w3.org/2000/svg" viewBox="0 0 430.11 430.12"><defs><style>.cls-1{fill:#333;}</style></defs><title>linkedin</title><path id="LinkedIn_alt_" data-name="LinkedIn (alt)" class="cls-1" d="M432.36,33H65.78C48.23,33,34,46.79,34,63.82V432.29c0,17,14.23,30.83,31.78,30.83H432.36c17.55,0,31.76-13.81,31.76-30.83V63.82C464.11,46.8,449.9,33,432.36,33Zm-268,360h-65V198.85h65V393ZM131.91,172.32h-0.44c-21.79,0-35.92-14.9-35.92-33.56,0-19,14.54-33.54,36.77-33.54s35.9,14.5,36.33,33.54C168.65,157.42,154.56,172.32,131.91,172.32ZM398.66,393h-65V289.14c0-26.11-9.41-43.92-32.91-43.92-18,0-28.64,12-33.33,23.62-1.74,4.14-2.17,9.94-2.17,15.73V393h-65s0.85-176,0-194.19h65v27.53c8.62-13.23,24-32.1,58.53-32.1,42.76,0,74.82,27.74,74.82,87.41V393h0ZM264.88,227c0.11-.18.27-0.4,0.42-0.61V227h-0.42Z" transform="translate(-34 -33)"/></svg>