<svg id="Layer_2" data-name="Layer 2" xmlns="http://www.w3.org/2000/svg" viewBox="0 0 345.03 77.18"><defs><style>.cls-1{fill:#333;}</style></defs><title>makeover</title><path class="cls-1" d="M79.9,98.57H65.77V75.1L56.34,98.57,46.9,75.1V98.57H32.77V32.71H46.9l9.44,23.56,9.43-23.56H79.9V98.57Z" transform="translate(-32.77 -23.28)"/><path class="cls-1" d="M125.6,89.28H111.47l-1.61-9.43H98l-1.61,9.43h-14l12.2-66h18.82ZM107.42,65.71l-3.5-20.48-3.45,20.48h6.95Z" transform="translate(-32.77 -23.28)"/><path class="cls-1" d="M165.69,97.65H151.56l-9.44-26.28V97.65H128V31.75h14.13V58.16l9.44-26.42h14.13l-11.78,33Z" transform="translate(-32.77 -23.28)"/><path class="cls-1" d="M206.23,98.57h-33V32.71h33V46.84H187.36V58.63h18.87V72.75H187.36V84.54h18.87v14Z" transform="translate(-32.77 -23.28)"/><path class="cls-1" d="M251.47,81.73L242,91.16H223.22l-9.44-9.43V34.6l9.44-9.43H242l9.43,9.43V81.73ZM237.35,77V39.29h-9.43V77h9.43Z" transform="translate(-32.77 -23.28)"/><path class="cls-1" d="M297.17,34.6l-12.24,65.86H266.11L253.91,34.6h14l7.55,44,7.55-44h14.13Z" transform="translate(-32.77 -23.28)"/><path class="cls-1" d="M332.57,98.57h-33V32.71h33V46.84H313.7V58.63h18.87V72.75H313.7V84.54h18.87v14Z" transform="translate(-32.77 -23.28)"/><path class="cls-1" d="M377.81,93H363.68v-26h-9.43V93H340.11v-66h28.26l9.43,9.43V53.42l-6.58,6.63,6.58,6.58V93ZM363.68,53V41.18h-9.43V53h9.43Z" transform="translate(-32.77 -23.28)"/></svg>