<svg id="Layer_1" data-name="Layer 1" xmlns="http://www.w3.org/2000/svg" viewBox="0 0 5013.46 1498.56"><defs><style>.cls-1{fill:#53c1de;}</style></defs><title>react</title><path class="cls-1" d="M2122.4,829.55q-26.89-9.22-54.22-17.08,4.53-18.41,8.38-37c41-199.23,14.21-359.74-77.43-412.57-87.86-50.67-231.56,2.16-376.7,128.46q-21.45,18.71-41.94,38.49-13.71-13.15-27.91-25.78c-152.1-135.05-304.56-192-396.11-139-87.78,50.81-113.78,201.71-76.83,390.52q5.51,28,12.45,55.79c-21.57,6.13-42.41,12.66-62.34,19.6-178.32,62.17-292.2,159.61-292.2,260.67,0,104.39,122.25,209.09,308,272.57q22.59,7.69,45.54,14.24-7.45,29.88-13.23,60.13c-35.23,185.53-7.72,332.85,79.83,383.35,90.43,52.14,242.19-1.45,390-130.63q17.52-15.32,35.15-32.4,22.18,21.4,45.53,41.54c143.15,123.18,284.52,172.92,372,122.29,90.34-52.3,119.7-210.56,81.58-403.11q-4.36-22.06-10.1-45,16-4.72,31.32-9.78c193.09-64,318.72-167.4,318.72-273.18,0-101.43-117.55-199.53-299.46-262.15h0Zm-41.88,467c-9.21,3-18.66,6-28.29,8.85-21.32-67.48-50.09-139.24-85.29-213.37,33.6-72.38,61.25-143.22,82-210.27,17.23,5,34,10.25,50.07,15.8,155.87,53.65,250.94,133,250.94,194.11,0,65.11-102.68,149.64-269.39,204.88h0Zm-69.17,137.07c16.85,85.14,19.26,162.12,8.1,222.3-10,54.07-30.2,90.12-55.15,104.56-53.08,30.73-166.6-9.21-289-114.56q-21.05-18.11-42.35-38.61c47.46-51.91,94.89-112.26,141.18-179.27,81.43-7.22,158.36-19,228.12-35.16q5.14,20.8,9.12,40.74h0ZM1311.77,1755.2c-51.86,18.31-93.16,18.84-118.13,4.44-53.13-30.64-75.21-148.93-45.09-307.6q5.37-28.13,12.3-55.92c69,15.26,145.36,26.24,227,32.86,46.6,65.57,95.4,125.85,144.58,178.63q-15.68,15.17-32.09,29.55c-65.35,57.13-130.84,97.65-188.55,118h0Zm-243-459c-82.13-28.07-150-64.55-196.45-104.36-41.77-35.78-62.87-71.3-62.87-100.12,0-61.33,91.44-139.56,243.94-192.73q28.71-10,58-18.24c21.08,68.56,48.73,140.23,82.09,212.72-33.8,73.56-61.84,146.38-83.11,215.75Q1089.44,1303.2,1068.81,1296.18Zm81.44-554.36C1118.6,580,1139.62,458,1192.52,427.38c56.35-32.62,180.95,13.89,312.28,130.5,8.39,7.45,16.82,15.26,25.27,23.33-48.93,52.54-97.28,112.36-143.48,177.56-79.22,7.34-155,19.13-224.76,34.93q-6.44-25.8-11.58-51.9h0Zm726.53,179.4q-24.7-42.66-51.22-84.23c53.74,6.78,105.23,15.8,153.58,26.84a1534.84,1534.84,0,0,1-53.91,145q-23.35-44.3-48.45-87.65h0ZM1580.51,632.63a1538.79,1538.79,0,0,1,99.12,119.65q-99.48-4.7-199.07,0c32.72-43.15,66.24-83.24,100-119.61h0ZM1282.33,921.7q-24.78,43-47.54,87.1c-21-49.7-38.88-98.56-53.52-145.74,48.06-10.76,99.3-19.54,152.7-26.22Q1307.15,878.66,1282.33,921.7Zm53.17,430c-55.16-6.16-107.18-14.5-155.23-25,14.87-48,33.19-97.93,54.59-148.7q22.85,44.13,47.75,87.15Q1308,1309.06,1335.5,1351.68Zm247,204.16c-34.1-36.8-68.12-77.5-101.34-121.28q48.37,1.9,98.54,1.91,51.5,0,101.67-2.26A1530.13,1530.13,0,0,1,1582.5,1555.84Zm343.43-380.4c22.51,51.31,41.49,101,56.56,148.17a1527,1527,0,0,1-157.12,26.78q26.7-42.34,51.71-85.71,25.41-44.07,48.85-89.24h0Zm-111.18,53.3q-38.27,66.48-80.8,130.37c-50,3.57-101.61,5.41-154.24,5.41-52.41,0-103.4-1.63-152.5-4.82q-43.61-63.71-82.32-130.57-38.49-66.47-71.86-135.71,33.25-69.22,71.64-135.78h0q38.35-66.54,81.67-130c50.09-3.79,101.45-5.77,153.37-5.77,52.15,0,103.58,2,153.65,5.81q42.85,63.34,81.15,129.58,38.49,66.37,72.61,135.14-33.75,69.44-72.37,136.34h0Zm148.43-803.5c56.4,32.53,78.34,163.7,42.9,335.72q-3.48,16.81-7.57,33.48c-69.88-16.12-145.76-28.12-225.2-35.58C1727,693,1679.07,633,1630.93,581.18q18.92-18.24,38.73-35.53C1794,437.43,1910.23,394.7,1963.18,425.24h0Z" transform="translate(-737.55 -343.84)"/><path class="cls-1" d="M1579.7,941.29a150.41,150.41,0,1,1-150.4,150.4,150.4,150.4,0,0,1,150.4-150.4" transform="translate(-737.55 -343.84)"/><path d="M2880.41,816.33c57-11.66,138.67-18.14,216.43-18.14,120.53,0,198.29,22,252.72,71.28,44.06,38.88,68.69,98.5,68.69,165.89,0,115.34-72.58,191.81-164.59,222.91v3.89c67.39,23.33,107.57,85.54,128.3,176.26,28.51,121.82,49.25,206.06,67.39,239.76H3332.72c-14.26-24.62-33.7-99.79-58.32-208.66-25.92-120.53-72.58-165.89-175-169.78H2993.17v378.43H2880.41V816.33Zm112.75,397.87h115.34c120.53,0,197-66.1,197-165.89,0-112.75-81.65-162-200.88-163.3-54.43,0-93.31,5.18-111.46,10.37V1214.2Z" transform="translate(-737.55 -343.84)"/><path d="M3642.45,1385.27C3645,1539.5,3743.54,1603,3857.59,1603c81.65,0,130.9-14.26,173.67-32.4l19.44,81.65c-40.18,18.14-108.86,38.88-208.66,38.88-193.1,0-308.45-127-308.45-316.23s111.46-338.26,294.19-338.26c204.77,0,259.2,180.14,259.2,295.49,0,23.33-2.59,41.47-3.89,53.14H3642.45Zm334.37-81.65c1.3-72.58-29.81-185.33-158.11-185.33-115.34,0-165.89,106.27-175,185.33h333.07Z" transform="translate(-737.55 -343.84)"/><path d="M4575.56,1678.17l-9.07-79.06h-3.89c-35,49.25-102.38,93.31-191.81,93.31-127,0-191.81-89.42-191.81-180.14,0-151.63,134.78-234.58,377.14-233.28v-13c0-51.84-14.26-145.15-142.56-145.15-58.32,0-119.23,18.14-163.3,46.66l-25.92-75.17c51.84-33.7,127-55.73,206.06-55.73,191.81,0,238.46,130.9,238.46,256.61v234.58c0,54.43,2.59,107.57,10.37,150.34H4575.56Zm-16.85-320.11C4434.3,1355.46,4293,1377.5,4293,1499.32c0,73.87,49.25,108.86,107.57,108.86,81.65,0,133.49-51.84,151.63-105,3.89-11.66,6.48-24.62,6.48-36.29V1358.06Z" transform="translate(-737.55 -343.84)"/><path d="M5300,1654.84c-29.81,15.55-95.9,36.29-180.14,36.29-189.22,0-312.34-128.3-312.34-320.11,0-193.1,132.19-333.07,337-333.07,67.39,0,127,16.85,158.11,32.4l-25.92,88.13c-27.22-15.55-70-29.81-132.19-29.81-143.86,0-221.62,106.27-221.62,237.17,0,145.15,93.31,234.58,217.73,234.58,64.8,0,107.57-16.85,140-31.1Z" transform="translate(-737.55 -343.84)"/><path d="M5587.71,870.76V1050.9H5751v86.83h-163.3V1476c0,77.76,22,121.82,85.54,121.82,29.81,0,51.84-3.89,66.1-7.78l5.18,85.54c-22,9.07-57,15.55-101.09,15.55-53.14,0-95.9-16.85-123.12-48-32.4-33.7-44.06-89.42-44.06-163.3V1137.73h-97.2V1050.9h97.2V900.57Z" transform="translate(-737.55 -343.84)"/></svg>