<svg id="Layer_1" data-name="Layer 1" xmlns="http://www.w3.org/2000/svg" viewBox="0 0 452.79 120.19"><defs><style>.cls-1{fill:#333;}</style></defs><title>redux</title><path class="cls-1" d="M309,134.5c-0.72,0-1.21.09-1.7,0.09-4.24,0-8.47-.05-12.71,0a6.92,6.92,0,0,1-6.72-3.93c-3.5-6.32-7.15-12.56-10.75-18.83a15.18,15.18,0,0,0-1.1-1.71,3.82,3.82,0,0,0-2.84-1.66c-1.79-.08-3.6,0-5.59,0v26h-16.3V63.85a9.94,9.94,0,0,1,1.26-.15c8.13,0,16.27,0,24.4,0a36.46,36.46,0,0,1,13.88,2.72,20.52,20.52,0,0,1,7,4.66,18,18,0,0,1,4.88,12.15c0.44,9.69-4,16.89-12.73,21-0.35.17-.7,0.35-1,0.53a0.9,0.9,0,0,0,.16.34,18.93,18.93,0,0,1,6.33,6.92c4.15,6.93,8.41,13.79,12.62,20.68C308.33,133.28,308.6,133.82,309,134.5ZM267.62,97c3.51-.14,6.89.31,10.24-0.35a14.46,14.46,0,0,0,3.37-1.09,8.8,8.8,0,0,0,5-6.06,18.4,18.4,0,0,0,.44-2.84c0.45-5.13-2.21-8.92-7.19-10.19-3.83-1-7.74-.64-11.63-0.51a1,1,0,0,0-.22.25V97Z" transform="translate(-61.89 -36.93)"/><path class="cls-1" d="M389.49,87.18V61.83H404.4v72.64c-0.48,0-.92.11-1.35,0.11-2.6,0-5.2,0-7.8,0-2.17,0-3.17-.78-3.86-2.86-0.34-1-.67-2-1-3a0.85,0.85,0,0,0-.28-0.12l-1.67,1.51a19.55,19.55,0,0,1-14.9,5.26A15.49,15.49,0,0,1,361.85,129a24.5,24.5,0,0,1-4.53-10.12,38.13,38.13,0,0,1,.81-20.56,23.1,23.1,0,0,1,5.32-9c5.4-5.5,11.93-7.32,19.38-5.58a24.58,24.58,0,0,1,4.9,2.23A18.21,18.21,0,0,1,389.49,87.18Zm0,21.13c0-3.16,0-6.32,0-9.49a2.52,2.52,0,0,0-.91-2.07,10.16,10.16,0,0,0-7.16-2.54,7.75,7.75,0,0,0-7.14,4.07,18,18,0,0,0-1.68,4.22,32.67,32.67,0,0,0-.54,11.44,17.17,17.17,0,0,0,1.52,5.87,6.6,6.6,0,0,0,6.47,4,11.13,11.13,0,0,0,8.54-3.79,3.08,3.08,0,0,0,.89-2.27C389.46,114.63,389.49,111.47,389.49,108.31Z" transform="translate(-61.89 -36.93)"/><path class="cls-1" d="M443.15,84.22h14.69c0.4,1.25.57,46.67,0.19,50.23a11.28,11.28,0,0,1-1.25.14c-2.6,0-5.2,0-7.79,0-2.28,0-3.24-.76-4-2.95-0.22-.69-0.44-1.38-0.68-2.14a3.91,3.91,0,0,0-1.82,1.24A19.65,19.65,0,0,1,425.39,135a14.9,14.9,0,0,1-11-8.9,21.84,21.84,0,0,1-2-9.21c-0.05-10.51,0-21,0-31.52,0-.33.05-0.66,0.09-1.09h14.93c0,0.65.06,1.31,0.06,2,0,9.83,0,19.66,0,29.48a15.56,15.56,0,0,0,.39,3.68,5.87,5.87,0,0,0,5.87,4.7c3.49,0.15,6.35-1.35,8.87-3.58a2.48,2.48,0,0,0,.5-1.67c0-4.12,0-8.25,0-12.37q0-10.17,0-20.33v-1.9Z" transform="translate(-61.89 -36.93)"/><path class="cls-1" d="M320.78,112.1a11.25,11.25,0,0,0,10.58,12,16.51,16.51,0,0,0,8.67-1.83c1.06-.54,2.09-1.12,3.17-1.62,2.52-1.17,4-.81,5.78,1.33l3.81,4.72c-0.45.5-.83,1-1.26,1.4a22.13,22.13,0,0,1-7.77,5,32.36,32.36,0,0,1-19,1.55c-10.21-2.25-16.26-8.85-18.52-18.91-1.35-6-1.24-12,1.25-17.79,3.84-8.85,10.75-13.55,20.23-14.53a26,26,0,0,1,9.75.75c8.32,2.34,13.19,7.91,15,16.23a25.68,25.68,0,0,1,.44,8.59c-0.26,2.18-.93,2.84-3.12,3-0.56,0-1.13,0-1.69,0H320.78Zm18.7-8.84c0.39-4.55-2.35-9.43-8.38-9.54-5.76-.1-10.18,4-10.09,9.54h18.47Z" transform="translate(-61.89 -36.93)"/><path class="cls-1" d="M488.81,100.68c0.79-1.42,1.49-2.69,2.21-4,1.87-3.29,3.81-6.54,5.61-9.86a4.7,4.7,0,0,1,4.76-2.77c3.55,0.14,7.12,0,10.68,0h2c-5.48,8.1-10.89,15.84-16.23,23.73l16.79,26.56a10.08,10.08,0,0,1-1.23.17c-4.29,0-8.59,0-12.88,0a4.68,4.68,0,0,1-4.4-2.61q-2.91-5-5.79-10l-3.09-5.3c-0.3.5-.49,0.8-0.67,1.11-1.23,2.16-2.45,4.32-3.7,6.47q-2.17,3.73-4.39,7.44a5.22,5.22,0,0,1-5.12,2.88c-3.44-.17-6.89,0-10.34,0h-2l16.9-26.06L461.79,84.27c0.58-.07.93-0.14,1.29-0.14,4.29,0,8.59,0,12.88,0a4.39,4.39,0,0,1,4.28,2.41c2.46,4.25,5,8.43,7.59,12.64C488.11,99.62,488.42,100.07,488.81,100.68Z" transform="translate(-61.89 -36.93)"/><path class="cls-1 purple" d="M157.55,76.1l-6.83-2c-0.86-.26-1-1-1.07-1.75a42.44,42.44,0,0,0-6.28-16.85A26.69,26.69,0,0,0,136,47.62a19.3,19.3,0,0,0-15.86-2.81A43.39,43.39,0,0,0,113.22,47a23,23,0,0,0-10.33,8.48A45.37,45.37,0,0,0,95.1,77.44a60.38,60.38,0,0,0,4.51,29.81c0.88,2.07,2,4.05,3,6.09a2.22,2.22,0,0,0,2.35,1.43,8.7,8.7,0,0,1,8.66,6.51,8.8,8.8,0,1,1-17.05,4.33,7.63,7.63,0,0,1,.37-5.15,3.13,3.13,0,0,0-.3-3.3A71,71,0,0,1,88.8,96.5c-2.65-13-1.59-25.65,3.92-37.75,4.14-9.09,10.71-15.91,20.12-19.61,12.38-4.87,24.84-1.53,33.75,8.6,5.41,6.15,8.41,13.44,9.93,21.4C156.94,71.34,157.18,73.58,157.55,76.1Z" transform="translate(-61.89 -36.93)"/><path class="cls-1 purple" d="M80.24,93.82l2,7.6L81,102.52c-5.18,4.55-9.27,9.84-11.46,16.48C65.9,130,71.73,141.33,79,145.76a26,26,0,0,0,10.16,3.51,43.73,43.73,0,0,0,26.07-4.73,67.82,67.82,0,0,0,17.91-12.65,54.69,54.69,0,0,0,8.68-11.65,2.29,2.29,0,0,0-.18-2.86,8.79,8.79,0,1,1,15.53-7.75c1.35,4.46-.86,9.34-5.22,10.74a6,6,0,0,0-3.67,3.31c-9.32,17-23.59,27.41-42.36,31.86a46.62,46.62,0,0,1-14.11,1.29c-7.43-.53-14.27-2.77-20.13-7.53A26.16,26.16,0,0,1,62.52,133C60.24,120.21,64.3,109.39,73,100.11c1.77-1.89,3.82-3.52,5.75-5.25A16.6,16.6,0,0,1,80.24,93.82Z" transform="translate(-61.89 -36.93)"/><path class="cls-1 purple" d="M134.18,152.32c2.14-1.73,4.13-3.31,6.07-4.94a1.45,1.45,0,0,1,1.71-.08,41.53,41.53,0,0,0,8.95,2.48c6.65,1.09,13.16.66,19-3,7.52-4.68,11.71-11.48,11.56-20.53-0.08-4.54-1.69-8.73-3.78-12.71a44,44,0,0,0-13.1-15.1,61.63,61.63,0,0,0-26.7-11.37,60.1,60.1,0,0,0-11.3-.79,2.89,2.89,0,0,0-2.73,1.52c-2.21,3.51-5.82,4.75-9.88,3.74a8.7,8.7,0,0,1-6.36-8.28,8.81,8.81,0,0,1,5.73-8.4,8.6,8.6,0,0,1,9.9,2.73,3.51,3.51,0,0,0,3.26,1.51,70.49,70.49,0,0,1,30.12,6.1A60.53,60.53,0,0,1,181,105.12a38.39,38.39,0,0,1,7.29,18.73c1.22,11.79-3.19,21-13.2,27.36a37.66,37.66,0,0,1-17,5.74c-8.15.78-15.81-1-23.23-4.17A6.38,6.38,0,0,1,134.18,152.32Z" transform="translate(-61.89 -36.93)"/></svg>
