<svg id="Layer_1" data-name="Layer 1" xmlns="http://www.w3.org/2000/svg" xmlns:xlink="http://www.w3.org/1999/xlink" viewBox="0 0 418.99 67.51"><defs><style>.cls-1{fill:none;}.cls-2{clip-path:url(#clip-path);}.cls-3{fill:#333;}</style><clipPath id="clip-path" transform="translate(-31 -30.49)"><rect class="cls-1" x="31.06" y="30.49" width="429.51" height="67.51"/></clipPath></defs><title>rosetta</title><g class="cls-2"><path class="cls-3" d="M49.67,63.82c0,0.94.17,1.27,0.77,1.53a22.71,22.71,0,0,0,6.48.85c3.41,0,4.51-.34,6.05-1.45C65.52,62.88,68,59,68,52c0-12.1-8-15.6-13-15.6a18.59,18.59,0,0,0-4.52.34,1,1,0,0,0-.77,1.19V63.82M39.61,57.09c0-13,0-15.34-.17-18.07-0.17-2.9-.85-4.26-3.66-4.86a17.62,17.62,0,0,0-3.33-.26c-0.94,0-1.45-.17-1.45-0.76s0.6-.77,1.88-0.77c4.52,0,9.89.26,11.68,0.26,2.89,0,9.37-.26,12-0.26,5.37,0,11.08.51,15.69,3.66a14.76,14.76,0,0,1,5.79,11.68c0,6.31-2.64,12.1-11.25,19.09,7.59,9.55,13.46,17.13,18.5,22.42,4.77,4.95,8.26,5.54,9.54,5.8a13.73,13.73,0,0,0,2.39.26c0.68,0,1,.25,1,0.67,0,0.68-.59.85-1.62,0.85h-8.1c-4.78,0-6.9-.43-9.12-1.62-3.66-2-6.91-6-11.68-12.53C64.33,78,60.41,72.18,59.3,70.9a1.76,1.76,0,0,0-1.54-.6l-7.41-.18a0.6,0.6,0,0,0-.69.68V72c0,7.93,0,14.66.43,18.24,0.26,2.47.77,4.35,3.33,4.68a38.78,38.78,0,0,0,4.18.35c0.68,0,1,.25,1,0.67,0,0.6-.6.85-1.7,0.85-4.95,0-11.25-.25-12.53-0.25-1.62,0-7,.25-10.39.25-1.11,0-1.71-.25-1.71-0.85,0-.42.35-0.67,1.36-0.67a13.65,13.65,0,0,0,3.07-.35c1.71-.34,2.14-2.21,2.47-4.68,0.43-3.58.43-10.31,0.43-18.16v-15Z" transform="translate(-31 -30.49)"/></g><path class="cls-3" d="M151,66.2c0-19.09-11-30.94-25-30.94-9.81,0-21,5.46-21,26.68,0,17.73,9.8,31.79,26.17,31.79,6,0,19.77-2.9,19.77-27.53m-57.7-1.62c0-14.58,9.63-33.41,35.2-33.41,21.23,0,34.44,12.36,34.44,31.88S149.26,98,127.6,98c-24.46,0-34.34-18.33-34.34-33.41" transform="translate(-31 -30.49)"/><path class="cls-3" d="M173,95.78c-1.36-.6-1.62-1-1.62-2.89,0-4.7.34-9.81,0.43-11.17s0.34-2.22,1-2.22,0.86,0.77.86,1.45a18,18,0,0,0,.77,4.35c1.87,6.3,6.9,8.6,12.19,8.6,7.67,0,11.42-5.19,11.42-9.72,0-4.17-1.27-8.09-8.35-13.63l-3.91-3.07c-9.38-7.33-12.62-13.3-12.62-20.2,0-9.37,7.84-16.11,19.69-16.11a41.28,41.28,0,0,1,11.34,1.45c0.76,0.17,1.19.43,1.19,1,0,1.1-.34,3.58-0.34,10.23,0,1.88-.26,2.56-0.94,2.56s-0.85-.51-0.85-1.54a10.33,10.33,0,0,0-2.21-5.62c-1.28-1.62-3.76-4.17-9.3-4.17-6.3,0-10.15,3.66-10.15,8.78,0,3.92,2,6.9,9,12.27l2.39,1.79c10.31,7.76,14,13.64,14,21.73a17.18,17.18,0,0,1-8,14.83A24.59,24.59,0,0,1,185.49,98c-4.95,0-8.78-.6-12.45-2.22" transform="translate(-31 -30.49)"/><path class="cls-3" d="M224.79,57.09c0-13,0-15.34-.17-18.07-0.17-2.9-.85-4.26-3.66-4.86a17.63,17.63,0,0,0-3.32-.26c-0.94,0-1.45-.17-1.45-0.76s0.6-.77,1.88-0.77c2.3,0,4.77.08,6.9,0.08s4.19,0.18,5.38.18c2.72,0,19.69,0,21.3-.09A34.47,34.47,0,0,0,255.3,32a7.66,7.66,0,0,1,1.37-.35c0.43,0,.51.35,0.51,0.76A53.15,53.15,0,0,0,256.5,38c-0.09.86-.26,4.6-0.43,5.63a0.93,0.93,0,0,1-.85.94c-0.6,0-.77-0.43-0.77-1.19a9.28,9.28,0,0,0-.51-3.07c-0.6-1.54-1.45-2.56-5.71-3.07-1.44-.17-10.39-0.34-12.1-0.34-0.43,0-.6.25-0.6,0.85V59.3c0,0.6.09,0.94,0.6,0.94,1.87,0,11.68,0,13.63-.17s3.32-.43,4.1-1.27c0.6-.68.94-1.11,1.36-1.11a0.57,0.57,0,0,1,.6.68c0,0.51-.34,1.87-0.69,6.22-0.08,1.71-.34,5.12-0.34,5.71s0,1.62-.76,1.62a0.68,0.68,0,0,1-.76-0.77,23.39,23.39,0,0,0-.35-3.07c-0.42-1.71-1.62-3-4.77-3.33-1.62-.17-10.06-0.26-12.1-0.26-0.43,0-.52.34-0.52,0.85v6.73c0,2.89-.08,10.75,0,13.22,0.17,5.88,1.53,7.15,10.23,7.15,2.22,0,5.79,0,8-1s3.23-2.81,3.83-6.31c0.17-.94.34-1.28,0.94-1.28s0.67,0.68.67,1.53a66.72,66.72,0,0,1-1.1,9.46c-0.61,2.22-1.37,2.22-4.61,2.22-6.39,0-11.08-.17-14.74-0.26s-6.31-.25-8.86-0.25c-0.94,0-2.81,0-4.86.09s-4.18.17-5.88,0.17c-1.11,0-1.71-.25-1.71-0.85,0-.42.34-0.67,1.36-0.67a13.65,13.65,0,0,0,3.07-.35c1.71-.34,2.14-2.21,2.47-4.68,0.43-3.58.43-10.31,0.43-18.16v-15" transform="translate(-31 -30.49)"/><path class="cls-3" d="M290,37.14l-12.7.34c-4.94.17-7,.59-8.26,2.47a9.9,9.9,0,0,0-1.45,3,1,1,0,0,1-.95,1c-0.59,0-.76-0.43-0.76-1.36,0-1.36,1.63-9.12,1.79-9.81,0.26-1.11.51-1.62,1-1.62,0.68,0,1.54.85,3.66,1,2.47,0.26,5.71.43,8.53,0.43h33.75a40.54,40.54,0,0,0,5.88-.43,21,21,0,0,1,2.3-.42c0.6,0,.69.51,0.69,1.79,0,1.79-.26,7.67-0.26,9.89-0.09.85-.26,1.36-0.77,1.36-0.68,0-.85-0.43-0.94-1.7l-0.08-.94c-0.17-2.22-2.47-4.6-10.05-4.77l-10.74-.26V72.08c0,7.85,0,14.58.43,18.24,0.25,2.39.77,4.27,3.32,4.61a36.9,36.9,0,0,0,4.34.34c0.94,0,1.37.26,1.37,0.69,0,0.59-.68.84-1.62,0.84-5.62,0-11-.25-13.38-0.25-2,0-7.33.25-10.74,0.25-1.11,0-1.71-.25-1.71-0.84,0-.43.34-0.69,1.37-0.69a14.16,14.16,0,0,0,3.06-.34c1.7-.34,2.21-2.22,2.47-4.7C290,86.66,290,79.93,290,72.08V37.14" transform="translate(-31 -30.49)"/><path class="cls-3" d="M353.79,37.14l-12.7.34c-4.94.17-7,.59-8.27,2.47a10,10,0,0,0-1.44,3,1,1,0,0,1-.94,1c-0.6,0-.77-0.43-0.77-1.36,0-1.36,1.62-9.12,1.79-9.81,0.26-1.11.51-1.62,1-1.62,0.67,0,1.54.85,3.67,1,2.47,0.26,5.71.43,8.53,0.43h33.75a40.53,40.53,0,0,0,5.88-.43,21,21,0,0,1,2.31-.42c0.59,0,.69.51,0.69,1.79,0,1.79-.27,7.67-0.27,9.89-0.09.85-.25,1.36-0.77,1.36-0.68,0-.85-0.43-0.94-1.7l-0.08-.94c-0.18-2.22-2.47-4.6-10.06-4.77l-10.74-.26V72.08c0,7.85,0,14.58.42,18.24,0.26,2.39.78,4.27,3.33,4.61a37,37,0,0,0,4.35.34c0.94,0,1.37.26,1.37,0.69,0,0.59-.68.84-1.63,0.84-5.62,0-11-.25-13.37-0.25-2,0-7.33.25-10.74,0.25-1.12,0-1.71-.25-1.71-0.84,0-.43.34-0.69,1.36-0.69a14.21,14.21,0,0,0,3.07-.34c1.71-.34,2.22-2.22,2.47-4.7,0.43-3.57.43-10.31,0.43-18.15V37.14" transform="translate(-31 -30.49)"/><path class="cls-3" d="M420.07,70.3a0.37,0.37,0,0,0,.42-0.51l-7.67-21.06A0.85,0.85,0,0,0,412.4,48a0.9,0.9,0,0,0-.51.76L404,69.7c-0.08.34,0,.6,0.35,0.6h15.68m-17.39,4.26a0.73,0.73,0,0,0-.77.69l-4.6,12.19a16.38,16.38,0,0,0-1.28,5.2c0,1.54.77,2.64,3.4,2.64h1.28c1,0,1.27.17,1.27,0.68,0,0.68-.51.85-1.44,0.85-2.73,0-6.4-.25-9-0.25-0.94,0-5.62.25-10.05,0.25-1.11,0-1.62-.17-1.62-0.85,0-.51.34-0.68,1-0.68s2-.08,2.64-0.16c3.92-.52,5.54-3.41,7.24-7.68l21.4-53.53c1-2.48,1.53-3.42,2.38-3.42s1.28,0.77,2.13,2.73c2.05,4.69,15.69,39.46,21.14,52.42,3.24,7.67,5.71,8.87,7.51,9.29a18.74,18.74,0,0,0,3.57.34c0.69,0,1.12.09,1.12,0.68s-0.77.85-3.92,0.85-9.29,0-16.11-.17c-1.54-.09-2.56-0.09-2.56-0.68s0.35-.68,1.2-0.76a1.39,1.39,0,0,0,.77-2l-6.82-18.07a0.82,0.82,0,0,0-.86-0.6h-19Z" transform="translate(-31 -30.49)"/></svg>