<svg id="Layer_1" data-name="Layer 1" xmlns="http://www.w3.org/2000/svg" viewBox="0 0 160.24 23.46"><defs><style>.cls-1{fill:#333;fill-rule:evenodd;}</style></defs><title>samsung</title><path class="cls-1" d="M118.13,43a20.63,20.63,0,0,0-2.52-1.34,19.92,19.92,0,0,1-3.58-2,2.08,2.08,0,0,1-.48-2.37,1.48,1.48,0,0,1,1.51-.83s1.6,0.09,1.6,1.4v1.86h5.73V37s0.44-4.47-6.75-4.67c0,0-5.66-.37-7.28,2.68,0,0-.64.68-0.64,3v1.71a5.66,5.66,0,0,0,.94,3.25,7.47,7.47,0,0,0,2,1.75s2.85,1.54,4.56,2.41c0,0,1.73,1,1.5,2.55a1.69,1.69,0,0,1-1.81,1.54,1.59,1.59,0,0,1-1.53-1.65V47.76h-6.11v2.69s-0.17,5.15,7.68,5.15c0,0,7.5.15,7.85-5.29V48.13A5.73,5.73,0,0,0,118.13,43h0Z" transform="translate(-30.26 -32.15)"/><polygon class="cls-1" points="58.51 0.81 56.59 12.84 56.14 12.84 54.31 0.92 44.73 0.92 44.25 22.71 49.92 22.71 49.99 6.29 50.44 6.29 53.44 22.7 59.41 22.7 62.38 6.3 62.77 6.3 62.91 22.71 68.61 22.71 68 0.81 58.51 0.81 58.51 0.81"/><polygon class="cls-1" points="24.76 0.9 20.98 22.68 27.09 22.68 29.32 5.79 29.82 5.79 32.06 22.68 38.16 22.68 34.39 0.9 24.76 0.9 24.76 0.9"/><path class="cls-1" d="M183.12,42.74V46h1.57V49.4a1.57,1.57,0,1,1-3.13.11V37.59c0-1.23,1.55-1.29,1.55-1.29a1.46,1.46,0,0,1,1.5,1.47v1.81h5.75c0.19-3.54-.52-4.4-0.52-4.4-1.43-3.2-6.82-3-6.82-3-8.29,0-7.37,6.36-7.37,6.36V50c0.18,6,8.34,5.36,8.48,5.35,3.63-.4,4.73-1.56,4.73-1.56a3.54,3.54,0,0,0,1.27-1.79,10.6,10.6,0,0,0,.36-2.53V42.74h-7.38Z" transform="translate(-30.26 -32.15)"/><polygon class="cls-1" points="133.81 14.14 133.56 14.14 127.72 0.82 120.74 0.82 120.74 22.71 126.42 22.71 126.08 9.39 126.33 9.39 132.38 22.71 139.15 22.71 139.15 0.81 133.4 0.81 133.81 14.14 133.81 14.14"/><path class="cls-1" d="M137.13,49.4a1.67,1.67,0,1,1-3.34,0l0-16.47h-6.23V49.32s-0.64,6.18,8.09,6.18c0,0,7.58.09,7.58-5.9V33h-6.09V49.4h0Z" transform="translate(-30.26 -32.15)"/><path class="cls-1" d="M43.14,43a20.56,20.56,0,0,0-2.52-1.34,19.8,19.8,0,0,1-3.57-2,2.08,2.08,0,0,1-.48-2.37,1.48,1.48,0,0,1,1.51-.83s1.6,0.09,1.6,1.4v1.86h5.74V37s0.44-4.47-6.75-4.67a12.91,12.91,0,0,0-1.34,0s-4.36.23-5.91,2.62l0,0s-0.64.68-.64,3v1.71A5.65,5.65,0,0,0,31.67,43a7.47,7.47,0,0,0,2,1.75s2.85,1.53,4.56,2.41c0,0,1.73,1,1.5,2.56a1.69,1.69,0,0,1-1.81,1.54,1.59,1.59,0,0,1-1.53-1.65V47.76H30.26v2.69s-0.17,5.15,7.68,5.15c0,0,7.5.15,7.85-5.29V48.13A5.73,5.73,0,0,0,43.14,43h0Z" transform="translate(-30.26 -32.15)"/></svg>