<svg id="Layer_1" data-name="Layer 1" xmlns="http://www.w3.org/2000/svg" viewBox="0 0 527.04 151.92"><defs><style>.cls-1{fill:#333;}</style></defs><title>signet</title><path class="cls-1" d="M51.24,152.4h4.59c0.16,0.57.29,1,.42,1.48a42.32,42.32,0,0,0,10.42,18.9,27.54,27.54,0,0,0,15.08,8.32C92.51,183,104.31,179,110.2,168.87a26.59,26.59,0,0,0,3.53-13.52,25.64,25.64,0,0,0-9.15-20.3,55.59,55.59,0,0,0-10.18-7c-4.45-2.43-9-4.77-13.42-7.19a78.87,78.87,0,0,1-10.23-6.47,38.48,38.48,0,0,1-10.91-12.28A37.47,37.47,0,0,1,55.59,87,46.42,46.42,0,0,1,56.51,73c2.74-12,10-20.23,21.29-24.91a48,48,0,0,1,13.11-3.19,65.93,65.93,0,0,1,17.09.47c4.22,0.63,8.44,1.33,12.66,2a0.94,0.94,0,0,1,.92,1c0.27,2.34.59,4.68,0.89,7q0.8,6.3,1.58,12.61c0.18,1.46.35,2.92,0.53,4.47h-4.3c-0.28-1.19-.53-2.35-0.83-3.5a27.12,27.12,0,0,0-2.35-6,21.78,21.78,0,0,0-13-10.84,29,29,0,0,0-15.51-.69A20.45,20.45,0,0,0,74.44,62a28.56,28.56,0,0,0-1.59,23.89,24.15,24.15,0,0,0,6.34,9.21A45.16,45.16,0,0,0,88.78,102c4.7,2.57,9.47,5,14.21,7.48a99.58,99.58,0,0,1,13.17,7.86,41.3,41.3,0,0,1,8.91,8.67,33.48,33.48,0,0,1,6.32,16.36A40.07,40.07,0,0,1,129.79,160a36.91,36.91,0,0,1-14.53,18.86,48.62,48.62,0,0,1-20.34,8c-13.37,2.11-26.17-.07-38.51-5.39a1.63,1.63,0,0,1-1.13-1.47c-0.57-4.48-1.22-8.95-1.83-13.42-0.58-4.24-1.14-8.47-1.74-12.71a4.2,4.2,0,0,0-.47-1.05V152.4Z" transform="translate(-51.24 -42.24)"/><path class="cls-1" d="M578.28,43.2a7.3,7.3,0,0,0-.26,1.14q-0.6,8.19-1.17,16.39c-0.09,1.27-.19,2.55-0.29,3.91h-4.42c-0.17-1.33-.3-2.67-0.53-4a35.25,35.25,0,0,0-.88-4.09c-0.94-3.16-2.65-4.48-6.14-4.72-1.75-.12-3.52-0.05-5.28-0.06H545.52c0,0.58,0,1,0,1.43q0,32.16,0,64.32a14.84,14.84,0,0,0,.28,3,5.18,5.18,0,0,0,3,3.68,12.39,12.39,0,0,0,4.5,1.15c1.63,0.14,3.27.18,4.91,0.27l0.8,0.06a19.94,19.94,0,0,1,0,4.06H517.43v-4.13h1.93a26.21,26.21,0,0,0,6.41-.72,10.91,10.91,0,0,0,1.9-.7,5.37,5.37,0,0,0,3.12-4.27,16.32,16.32,0,0,0,.19-2.51q0-32,0-64.08c0-.47,0-0.93-0.07-1.46-0.47,0-.82-0.06-1.17-0.06-4.88,0-9.76,0-14.64,0a25.85,25.85,0,0,0-4.16.47,7.71,7.71,0,0,0-5.65,4.21,31.78,31.78,0,0,0-2.43,6.75c-0.12.46-.26,0.91-0.39,1.41h-4.16a4.71,4.71,0,0,1,0-.72q0.67-6.44,1.35-12.88c0.28-2.58.57-5.16,0.84-7.75,0-.36,0-0.72,0-1.07h3.36a3,3,0,0,0,1.5,2.81,8.07,8.07,0,0,0,1.84.84,13,13,0,0,0,4.14.51h28.05c9.43,0,18.86,0,28.29,0a8.07,8.07,0,0,0,7.2-4.15h3.36v1Z" transform="translate(-51.24 -42.24)"/><path class="cls-1" d="M574.92,42.24a8.07,8.07,0,0,1-7.2,4.15c-9.43,0-18.86,0-28.29,0H511.37a13,13,0,0,1-4.14-.51,8.07,8.07,0,0,1-1.84-.84,3,3,0,0,1-1.5-2.81h71Z" transform="translate(-51.24 -42.24)"/><path class="cls-1" d="M166.92,194.16l-0.67-3.25c0.58,0,1,0,1.51-.08a3,3,0,0,0,3.15-2.84,15.62,15.62,0,0,0,.16-2.62q0-10.9,0-21.8c0-.47,0-0.94,0-1.49h3.2c0,0.39.08,0.78,0.08,1.16q0,11.68,0,23.36a9.89,9.89,0,0,1-.61,3.64,5.39,5.39,0,0,1-3.7,3.46c-0.42.12-.82,0.31-1.22,0.47h-1.92Z" transform="translate(-51.24 -42.24)"/><path class="cls-1" d="M386.68,107.12c0-.38.07-0.76,0.07-1.15q0-21.6,0-43.19a25.28,25.28,0,0,0-.64-6.07,6.87,6.87,0,0,0-6.22-5.63c-1.78-.23-3.58-0.26-5.38-0.38l-1.33-.09V46.41c10.66,0.42,21.24.51,32,0,0,0.74,0,1.4,0,2.07s0,1.35,0,2.15c-1,.06-2,0.07-2.93.17a38,38,0,0,0-4.27.53,5,5,0,0,0-4.07,4.09,20.53,20.53,0,0,0-.48,4.27q0,35.27,0,70.55v1.71c-1.31,0-2.54,0-3.75,0a1.79,1.79,0,0,1-.89-0.71q-3.18-3.67-6.33-7.37L332.9,66.1c-0.31-.36-0.63-0.7-1.07-1.18a7.22,7.22,0,0,0-.22.89c0,0.32,0,.64,0,1q0,22.08,0,44.15a37.54,37.54,0,0,0,.6,7.64c0.72,3.45,2.72,5.65,6.2,6.33,1.68,0.33,3.39.49,5.1,0.66,0.79,0.08,1.59,0,2.55,0,0.1,1.42.06,2.75,0,4.22-3.94.15-7.79-.18-11.65-0.19s-7.84,0-11.76,0-7.73.18-11.66,0.27v-4.22c0.39,0,.77,0,1.16-0.07,1.39-.15,2.79-0.22,4.16-0.48,4.71-.91,7.24-3.56,8.06-8.3a43.4,43.4,0,0,0,.51-7.41q0-25.14,0-50.27a6.85,6.85,0,0,0-4.11-6.61,17.82,17.82,0,0,0-6.7-1.66c-0.91-.07-1.82-0.12-2.77-0.18V46.48c0.32,0,.55-0.06.78,0,3.84,0.11,7.67.32,11.51,0.32,3.36,0,6.71-.17,10.07-0.34a1.77,1.77,0,0,1,1.58.83l14.16,16.62,36.18,42.46c0.25,0.3.53,0.57,0.8,0.86Z" transform="translate(-51.24 -42.24)"/><path class="cls-1" d="M291.34,48.87l1.35,20c-1.17,0-2.19.06-3.21,0a1.22,1.22,0,0,1-.73-0.65c-0.48-.92-0.85-1.9-1.33-2.82-0.89-1.7-1.76-3.41-2.77-5a20.83,20.83,0,0,0-13.87-9.84,37.71,37.71,0,0,0-23.69,2.35c-7.79,3.49-12.87,9.55-15.84,17.46a47.45,47.45,0,0,0-2.73,13.1,49.75,49.75,0,0,0,.27,11.13c1.19,8.09,4.07,15.44,9.65,21.55A31.6,31.6,0,0,0,256,125.81a39.91,39.91,0,0,0,10.74.69,28.36,28.36,0,0,0,9.57-2.52,1.83,1.83,0,0,0,.32-0.25c0.09-2.41.21-4.85,0.26-7.28,0.06-2.72.11-5.44,0-8.16a24.11,24.11,0,0,0-.49-4.15,6,6,0,0,0-4.51-4.81,23.7,23.7,0,0,0-6.52-.81c-0.47,0-.93-0.08-1.46-0.13V94.26c6.1,0.14,12.16.37,18.21,0.38s12-.2,18.16-0.31v4.1c-0.51,0-1,.07-1.45.12-1.58.17-3.19,0.24-4.75,0.54a4,4,0,0,0-3.39,3.71,23,23,0,0,0-.22,3c0,4,0,8,0,12,0,0.12,0,.24,0,0.36,0.09,2.17.68,4,3,4.87v3.1c-0.35.11-.71,0.25-1.08,0.36a163.32,163.32,0,0,1-18.68,4.22,90,90,0,0,1-17.2,1.23c-9.16-.33-17.78-2.62-25.49-7.7-10.43-6.87-16.92-16.44-18.74-28.85-1.74-11.91.55-23,7.76-32.85a42.88,42.88,0,0,1,20.55-14.94A53.11,53.11,0,0,1,254,44.65a74.94,74.94,0,0,1,15.19.43c7,0.79,14,2.18,20.9,3.47C290.52,48.62,290.89,48.75,291.34,48.87Z" transform="translate(-51.24 -42.24)"/><path class="cls-1" d="M491.35,111.13l-5.19,18.57H416.67v-4.13a17.48,17.48,0,0,0,1.78,0,45.75,45.75,0,0,0,5.57-.68c3.52-.81,5.09-2.89,5.21-6.49,0-.28,0-0.56,0-0.84q0-29.39,0-58.79a16.54,16.54,0,0,0-.15-2.15,5.65,5.65,0,0,0-3.8-4.81,15.9,15.9,0,0,0-4.92-1c-1.19-.07-2.39-0.11-3.73-0.17-0.1-1.41,0-2.75,0-4.26,21.64,0.71,43.2.22,64.89,0l1,17.81h-3.41c-0.18-.8-0.36-1.61-0.55-2.42s-0.42-1.62-.65-2.43a9.06,9.06,0,0,0-7.79-6.86,47.59,47.59,0,0,0-6.67-.69c-6.24-.11-12.48-0.07-18.71-0.08-0.24,0-.47,0-0.69.05-0.28.86-.37,30.41-0.1,32.19,0.32,0,.67.09,1,0.09,5.52,0,11,0,16.56-.05a18.37,18.37,0,0,0,3.67-.47,5.61,5.61,0,0,0,4.19-3.74,17.62,17.62,0,0,0,1-5.4c0-.67,0-1.34,0-2.11h4.21c0,0.41.06,0.83,0,1.25-0.08,3.32-.25,6.63-0.24,10,0,5,.15,9.91.24,14.87,0,0.43,0,.86,0,1.36h-4.17c0-.48,0-0.94-0.08-1.41-0.14-1.31-.23-2.63-0.48-3.92A5.31,5.31,0,0,0,465.38,90a20,20,0,0,0-3.8-.48c-5.68-.06-11.36,0-17,0-0.19,0-.39,0-0.68.07,0,0.42-.08.8-0.08,1.19q0,12,0,24a14,14,0,0,0,.14,2,7.46,7.46,0,0,0,5,6.17,25,25,0,0,0,7.14,1.44,89.12,89.12,0,0,0,13.42,0,26.88,26.88,0,0,0,6.47-1.13,12.52,12.52,0,0,0,5.56-3.61,41.56,41.56,0,0,0,4.36-6.3,5.49,5.49,0,0,1,1.4-2,5.81,5.81,0,0,1,2.47-.15h1.56Z" transform="translate(-51.24 -42.24)"/><path class="cls-1" d="M153.45,50.66V46.4c13.23,0.49,26.37.47,39.68,0a25.56,25.56,0,0,1,0,4.26c-1.26.06-2.42,0.05-3.56,0.19a28.26,28.26,0,0,0-4.36.72,5.91,5.91,0,0,0-4.64,6c0,0.44,0,.88,0,1.32q0,29.28,0,58.56a15.76,15.76,0,0,0,.24,2.86,5.06,5.06,0,0,0,3.13,4,17.85,17.85,0,0,0,4,1.07c1.65,0.25,3.34.26,5.14,0.38a27.58,27.58,0,0,1,.09,4.13c-6.7-.08-13.28-0.23-19.86-0.23s-13.19.15-19.88,0.23a22.07,22.07,0,0,1,0-4.24h1.84a22.65,22.65,0,0,0,5.81-.73,6.08,6.08,0,0,0,4.9-6.15c0-.48,0-1,0-1.44q0-29,0-58.08a18.13,18.13,0,0,0-.23-3,5.48,5.48,0,0,0-3.56-4.34,15.5,15.5,0,0,0-5.15-1Z" transform="translate(-51.24 -42.24)"/><path class="cls-1" d="M281.52,166.72c-0.16.35-.32,0.7-0.47,1.05q-3.47,8.55-6.95,17.1a1.82,1.82,0,0,1-.76,1.07c-0.58.08-.6-0.63-0.77-1q-4.39-10.89-8.76-21.79c-0.12-.29-0.22-0.59-0.38-1a17,17,0,0,1,3.26,0l6.52,16.25h0.28L280,162h3.24L290,178.51c1.35-2.88,2.29-5.61,3.38-8.28s2.15-5.42,3.25-8.18h3.2c-0.16.46-.28,0.84-0.42,1.2q-4.36,10.84-8.74,21.67c-0.16.4-.16,1.11-0.78,1a1.69,1.69,0,0,1-.69-1q-3.44-8.5-6.84-17c-0.16-.4-0.35-0.79-0.52-1.19Z" transform="translate(-51.24 -42.24)"/><path class="cls-1" d="M492.4,162c3,0.14,5.84-.31,8.64.33,4.24,1,5.72,4.59,4.87,8.12a5.49,5.49,0,0,1-2.59,3.46l-1.1.68c2.64,2,4.06,4.8,5.74,7.4,0.63,1,1.31,1.91,2,2.86,0.19,0.28.37,0.58,0.68,1.07-1.3,0-2.41.05-3.5,0a1.56,1.56,0,0,1-.84-0.74c-1.06-1.59-2.06-3.24-3.14-4.82a36.81,36.81,0,0,0-2.41-3.13,4.92,4.92,0,0,0-5-1.63c-0.14,1.67,0,3.37-.06,5.07s0,3.41,0,5.21H492.4V162Zm3.29,10.46a10.51,10.51,0,0,0,5-.49,3.36,3.36,0,0,0,2-3.37,3.23,3.23,0,0,0-1.85-3.23c-1.66-.77-3.4-0.54-5.17-0.47v7.55Z" transform="translate(-51.24 -42.24)"/><path class="cls-1" d="M558.84,146.08H166.3v-0.27H558.84v0.27Z" transform="translate(-51.24 -42.24)"/><path class="cls-1" d="M217.51,165v7.33c3.23,0.11,6.42,0,9.69.08v2.83c-1.61.12-3.19,0-4.77,0.06s-3.19,0-4.9,0c-0.15,2.59-.07,5-0.06,7.63h10.35v3H214.33c-0.33-1.07-.35-22.73,0-23.85h13.23v2.77C224.24,165,220.94,164.78,217.51,165Z" transform="translate(-51.24 -42.24)"/><path class="cls-1" d="M340.39,175.27v7.59a31.23,31.23,0,0,0,3.33.06c1.16,0,2.32,0,3.48,0h3.38a7,7,0,0,1,.11,2.75,120.93,120.93,0,0,1-13.52.1c-0.29-.88-0.33-22.49,0-23.72h13.23v2.76c-0.37,0-.79.09-1.21,0.09h-7.44c-0.43,0-.86,0-1.35.07v7.28a22.67,22.67,0,0,0,3.21.09c1,0,2.08,0,3.12,0h3.34v2.92h-9.66Z" transform="translate(-51.24 -42.24)"/><path class="cls-1" d="M440.42,185.8V162.21a112.91,112.91,0,0,1,13.38-.08v2.69c-0.42,0-.85.08-1.27,0.09h-7.44c-0.43,0-.85.06-1.36,0.09v7.18a12.13,12.13,0,0,0,3.22.16c1,0,2.08,0,3.12,0h3.32v2.81c-0.45,0-.91.1-1.37,0.1h-6.84c-0.47,0-.93.06-1.45,0.09v7.54l5.18,0h5.2v2.88a24.15,24.15,0,0,1-3.4.08c-1.16,0-2.32,0-3.48,0s-2.24,0-3.36,0A22.22,22.22,0,0,1,440.42,185.8Z" transform="translate(-51.24 -42.24)"/><path class="cls-1" d="M559,163.28v3.57l-1-.71a7.33,7.33,0,0,0-4.69-1.53,5.77,5.77,0,0,0-2.07.51,2.63,2.63,0,0,0-1,4.12,7,7,0,0,0,1.67,1.52c1,0.65,2,1.17,3,1.79a25.1,25.1,0,0,1,2.83,2,6.62,6.62,0,0,1,2.28,6,6.26,6.26,0,0,1-5.84,5.57,10.54,10.54,0,0,1-6.74-1.64,1.28,1.28,0,0,1-.72-1.25c0-1,0-2,0-3.26l1.11,1a7.18,7.18,0,0,0,5.65,2.13,5.15,5.15,0,0,0,1.93-.57,2.82,2.82,0,0,0,1.13-4.1,7.67,7.67,0,0,0-1.86-2c-1-.78-2.15-1.38-3.21-2.09-0.89-.6-1.79-1.2-2.62-1.88a5.8,5.8,0,0,1-2.08-6.12,5.74,5.74,0,0,1,4.53-4.46A9.27,9.27,0,0,1,559,163.28Z" transform="translate(-51.24 -42.24)"/><path class="cls-1" d="M388.95,162h3.2V182.9h10.76v2.79a137,137,0,0,1-13.9.11l-0.07-.08a0.25,0.25,0,0,1-.07-0.09,5.11,5.11,0,0,1-.08-0.71q0-11.21,0-22.42A1.88,1.88,0,0,1,388.95,162Z" transform="translate(-51.24 -42.24)"/></svg>