<svg id="Layer_2" data-name="Layer 2" xmlns="http://www.w3.org/2000/svg" viewBox="0 0 216.36 42.64"><defs><style>.cls-1{fill:#333;}</style></defs><title>slo</title><path class="cls-1 lower" d="M22.12,48.73c0.12-.29.23-0.58,0.35-0.86a4.16,4.16,0,0,1,3.79-2.6,74.62,74.62,0,0,1,11.1-.1c3.14,0.25,6.29.58,9.41,1A79,79,0,0,1,61.2,49.8a1.23,1.23,0,0,1,1,1.4c0,0.54,0,1.08,0,1.62A1,1,0,0,0,63.48,54H78.62a1.19,1.19,0,0,0,1.43-1.44c0-.48,0-1,0-1.44A1,1,0,0,1,81,50c1.65-.39,3.31-0.74,5-1.09a14.56,14.56,0,0,1,2-.36,3.25,3.25,0,0,1,3.5,3.21c0,2.12,0,4.25,0,6.37a4.84,4.84,0,0,1-4,4.71,1.4,1.4,0,0,0-.27.12H26.33a16.42,16.42,0,0,1-2.24-1,5.06,5.06,0,0,1-2-3.16v-10Z" transform="translate(-22.12 -20.27)"/><path class="cls-1" d="M238.48,52.33c-0.1.37-.16,0.74-0.29,1.1A5.46,5.46,0,0,1,234.37,57a5.72,5.72,0,0,0-.58.14c-2,.84-3.53-0.09-4.89-1.42a5.25,5.25,0,0,1-.65-6.18,7,7,0,0,1,5.19-3.29,4,4,0,0,1,2.27.6,4.86,4.86,0,0,1,2.66,3.57,2.77,2.77,0,0,0,.11.34v1.56Zm-2.16.69c0-3.42-1.46-5.18-4.51-5.68a1.13,1.13,0,0,0-.79.23,3.93,3.93,0,0,0-1.26,2.63c-0.48,3.13.92,5.44,3.78,6.25a1.6,1.6,0,0,0,1.65-.4A3.92,3.92,0,0,0,236.32,53Z" transform="translate(-22.12 -20.27)"/><path class="cls-1" d="M22.12,58.7a5.06,5.06,0,0,0,2,3.16,16.42,16.42,0,0,0,2.24,1H22.12V58.7Z" transform="translate(-22.12 -20.27)"/><path class="cls-1 lower" d="M77.86,50.19H77.19c-4,0-8,0-12.07,0-0.59,0-.71-0.19-0.73-0.75a4.91,4.91,0,0,1,.86-3.18A10.58,10.58,0,0,0,67,40.57a4.21,4.21,0,0,1,3.42-4.06A4.08,4.08,0,0,1,75,39.16a9.25,9.25,0,0,1,.35,2.17,11.47,11.47,0,0,0,2.09,5.59,2.19,2.19,0,0,1,.45,1.49C77.84,49,77.86,49.53,77.86,50.19Z" transform="translate(-22.12 -20.27)"/><path class="cls-1" d="M214.82,47.18l2.65-.73,0.61,1.76c0.71-.5,1.43-1,2.17-1.52a2.58,2.58,0,0,1,2.83,0A5,5,0,0,1,226,51.06a5.21,5.21,0,0,1-2.69,5.24,16.43,16.43,0,0,1-2.89,1.13,1.83,1.83,0,0,1-1.08-.2,10.8,10.8,0,0,1-1.23-.69v4.63l-2.16.52c0-1.52,0-3,0-4.48,0-2.48.08-5,0-7.44a6.61,6.61,0,0,0-.5-2A2.41,2.41,0,0,0,214.82,47.18Zm3.35,4.8h0a6.37,6.37,0,0,1,0,1.2c-0.3,1.55.53,2.39,1.8,3,0.2,0.09.4,0.18,0.59,0.29a1.46,1.46,0,0,0,1.78-.21,3.19,3.19,0,0,0,.79-1,6.57,6.57,0,0,0,.57-4.72,4.09,4.09,0,0,0-3.13-3.21,0.89,0.89,0,0,0-.63,0c-1,.66-1.81,1.4-1.73,2.74C218.2,50.74,218.17,51.36,218.17,52Z" transform="translate(-22.12 -20.27)"/><path class="cls-1" d="M150.13,46.48l2.25-.27c0,0.93,0,1.84,0,2.75,0,1.7-.07,3.4-0.08,5.1a4.79,4.79,0,0,0,.15,1.13,1.09,1.09,0,0,0,1.26,1,4.68,4.68,0,0,1-.47.32c-0.27.13-.55,0.24-0.82,0.36-1,.43-1.07.41-1.68-0.48-0.19-.28-0.35-0.58-0.47-0.76-1.07.57-2.11,1.16-3.19,1.67a2,2,0,0,1-1.15.09,3.78,3.78,0,0,1-3.12-4.08c0.08-1.2.26-2.39,0.26-3.59,0-1,.58-2.19-0.81-3l3-.47c0,0.44,0,.85,0,1.26-0.1,1.9-.24,3.79-0.33,5.69a3.26,3.26,0,0,0,3.08,3.12,1.14,1.14,0,0,0,.71-0.35,4.71,4.71,0,0,0,1.36-3.24C150.15,50.64,150.13,48.58,150.13,46.48Z" transform="translate(-22.12 -20.27)"/><path class="cls-1" d="M120.2,57l-2.19.25c0-1.49,0-3,0-4.45s0.25-3.09-.32-4.58a1,1,0,0,0-.57-0.9A0.79,0.79,0,0,1,117,47l2.57-.66,0.7,2.07c0.55-.45,1.06-0.89,1.6-1.3,1.12-.83,2.31-1.2,3.59-0.31s2.42,2,2.17,3.89c-0.22,1.63-.4,3.26-0.56,4.89,0,0.4-.28,1,0.51,1a0.22,0.22,0,0,1,.09.18,0.42,0.42,0,0,1-.21.23,13.74,13.74,0,0,1-2,.25c-0.56,0-.54-0.52-0.51-0.91,0.07-1,.18-1.91.28-2.87s0.15-1.92.31-2.86c0.27-1.69-2.05-3.19-3.34-3a1.24,1.24,0,0,0-.68.44,4.67,4.67,0,0,0-1.27,3.15C120.2,53.08,120.2,55,120.2,57Z" transform="translate(-22.12 -20.27)"/><path class="cls-1" d="M195.3,50.42a15.4,15.4,0,0,1,1.9,1.1,2.64,2.64,0,0,1-.14,4.6,6.39,6.39,0,0,1-5.44,1.14c-0.69-.19-1.4-0.28-2.1-0.42,0-2.06.14-4.09,0.12-6.12a17.85,17.85,0,0,0-.38-2.94,1.48,1.48,0,0,0-.55-0.5L188.43,47a0.69,0.69,0,0,1,.22-0.22c0.69-.18,1.39-0.36,2.09-0.5a0.5,0.5,0,0,1,.4.21,9.24,9.24,0,0,1,.44.93c0.72-.37,1.43-0.75,2.16-1.09a2.65,2.65,0,0,1,2.75.8,1.64,1.64,0,0,1,0,1.82,5.66,5.66,0,0,1-.59.83A7.73,7.73,0,0,1,195.3,50.42Zm-3.3.64c0.36-.07.62-0.1,0.86-0.17a9.54,9.54,0,0,0,1.64-.54,1.22,1.22,0,0,0,.24-2.21,4,4,0,0,0-1.13-.65,1.23,1.23,0,0,0-1.83,1.3c0,1.8,0,3.6,0,5.41,0,2.12,0,2.12,2.09,2.61a1.94,1.94,0,0,0,2.39-2.41A4.19,4.19,0,0,0,194,51.64,11.83,11.83,0,0,0,192,51.06Z" transform="translate(-22.12 -20.27)"/><path class="cls-1" d="M150,31.45a5.62,5.62,0,0,1-4.13,5.73c-0.4.11-.83,0.16-1.22,0.3a3,3,0,0,1-2.68-.39,5.05,5.05,0,0,1-2.87-5.23c0.28-2.59,1.9-4.08,4.24-5a4.39,4.39,0,0,1,4.5.55A5,5,0,0,1,150,31.45Zm-8.8.5c-0.1,2.47,1.57,4,3.92,4.69a1.48,1.48,0,0,0,1.49-.34,3.43,3.43,0,0,0,1.16-2.36c0.36-3.27-.76-5.86-4.41-6.41a1.24,1.24,0,0,0-.89.27C141.39,28.77,141.26,30.1,141.22,31.95Z" transform="translate(-22.12 -20.27)"/><path class="cls-1" d="M187,51.27A5.62,5.62,0,0,1,182.87,57c-0.23.06-.47,0.1-0.7,0.17a3.4,3.4,0,0,1-3.1-.22,5.56,5.56,0,0,1-2.75-3.17c-0.86-3.05.89-6,4.09-7.13a4.52,4.52,0,0,1,4.45.55A5,5,0,0,1,187,51.27Zm-8.79.45c-0.1,2.5,1.54,4,3.81,4.72a1.58,1.58,0,0,0,1.7-.4,3.47,3.47,0,0,0,1.06-2.28c0.37-3.33-.81-5.86-4.41-6.4a1.24,1.24,0,0,0-.89.27C178.42,48.61,178.28,49.95,178.24,51.72Z" transform="translate(-22.12 -20.27)"/><path class="cls-1" d="M154.94,34.94h4.26c-1.19,1.37-2.82.82-4.36,1v4.51l-2.07.26V35.9L152,35.73c1.06-.68.83-1.66,0.81-2.57,0-1.76-.09-3.52-0.22-5.28a3.07,3.07,0,0,1,.86-2.46,8.64,8.64,0,0,1,3.12-2.08,0.73,0.73,0,0,1,.51,0c0.83,0.36,1.65.76,2.57,1.18l-1.39,1.21c-0.67-.4-1.27-0.83-1.93-1.15-1.08-.52-1.89.15-1.79,1.38q0.25,3.26.44,6.52C155,33.25,154.94,34,154.94,34.94Z" transform="translate(-22.12 -20.27)"/><path class="cls-1" d="M163.28,54.4c-0.05.31-.1,0.52-0.13,0.74a1.69,1.69,0,0,0,.85,1.72,1.71,1.71,0,0,0,1.85-.25,1.68,1.68,0,0,0-.16-2.9c-0.7-.44-1.5-0.75-2.25-1.13a12.55,12.55,0,0,1-1.47-.8,2,2,0,0,1-.86-2.66A4,4,0,0,1,163,47a3.44,3.44,0,0,1,4.42.15c0.3,0.26.64,0.47,1,.73l-1.29,2.19c-0.1-.21-0.17-0.34-0.23-0.47a2.53,2.53,0,0,0-.47-1,10.7,10.7,0,0,0-2.17-1.22,1.21,1.21,0,0,0-1.67.6,1.29,1.29,0,0,0,.56,1.9c0.72,0.39,1.49.68,2.22,1A18.26,18.26,0,0,1,167.42,52a2.56,2.56,0,0,1,.28,4.34,5.49,5.49,0,0,1-5.81.62,1.9,1.9,0,0,1-1-2,0.75,0.75,0,0,1,.38-0.4,1.18,1.18,0,0,1,.47-0.05Z" transform="translate(-22.12 -20.27)"/><path class="cls-1" d="M213.11,47.9l-1.3,2.19c-0.1-.21-0.17-0.34-0.22-0.47a2.33,2.33,0,0,0-.42-1,11.82,11.82,0,0,0-2.28-1.28,1.19,1.19,0,0,0-1.61.62,1.3,1.3,0,0,0,.56,1.9c0.7,0.38,1.45.67,2.17,1a19.61,19.61,0,0,1,2.13,1.1,2.56,2.56,0,0,1,.32,4.3,5.37,5.37,0,0,1-5.9.6,2.46,2.46,0,0,1-.89-1.07c-0.41-1-.17-1.28.87-1.34L208,54.4c0,0.28-.08.51-0.11,0.74a1.61,1.61,0,0,0,.65,1.58,1.54,1.54,0,0,0,1.65.14,1.73,1.73,0,0,0,.29-3.11A25.78,25.78,0,0,0,208,52.52a10.84,10.84,0,0,1-1.26-.69,2,2,0,0,1-.88-2.75,3.33,3.33,0,0,1,1.52-1.88c2.45-1.37,2.82-1.27,4.77,0C212.47,47.4,212.76,47.64,213.11,47.9Z" transform="translate(-22.12 -20.27)"/><path class="cls-1" d="M104.72,47.85l-1.34,2.25-0.21-.5a2.15,2.15,0,0,0-.39-0.93,12.83,12.83,0,0,0-2.32-1.31,1.2,1.2,0,0,0-1.6.64,1.28,1.28,0,0,0,.53,1.86c0.77,0.42,1.59.74,2.38,1.12a17.09,17.09,0,0,1,2,1,2.55,2.55,0,0,1,.34,4.26,5.45,5.45,0,0,1-6,.64,2,2,0,0,1-.9-2.33l2.35-.19c-0.05.3-.1,0.53-0.13,0.76a1.62,1.62,0,0,0,.67,1.58,1.54,1.54,0,0,0,1.65.13,1.74,1.74,0,0,0,.32-3.09,16.4,16.4,0,0,0-1.85-1,19.73,19.73,0,0,1-1.91-1,2,2,0,0,1-.86-2.75c0.56-1.56,1.88-2.2,3.31-2.7a2,2,0,0,1,1.79.15C103.27,46.93,104,47.38,104.72,47.85Z" transform="translate(-22.12 -20.27)"/><path class="cls-1" d="M123.58,39.62l1.6-.58a2.64,2.64,0,0,0,.77,1c0.55,0.15.74-.42,0.91-0.84,0.24-.61.44-1.24,0.68-1.92l-0.92.06c-0.24-.68-0.41-1.34-0.69-1.94C125,33.31,124,31.24,123,29.2a18.74,18.74,0,0,0-1.3-2l2.28-1.1,4.21,9.36c0.85-3,2.41-5.77,2-9h1.62c-0.18.74-.3,1.42-0.52,2.06q-1.69,4.9-3.43,9.78a7.56,7.56,0,0,1-.85,1.64,2.11,2.11,0,0,1-1.81.91A1.55,1.55,0,0,1,123.58,39.62Z" transform="translate(-22.12 -20.27)"/><path class="cls-1" d="M112.77,55.61c-1.13.55-2.22,1.13-3.35,1.61a2.08,2.08,0,0,1-2.36-.22,1.77,1.77,0,0,1-.5-2.45,6.11,6.11,0,0,1,1.56-1.62c1-.69,2-1.23,3.14-1.87-0.4-1.09-.54-2.35-1.59-3.2a0.67,0.67,0,0,0-1-.05,1.9,1.9,0,0,1-.61.21L108,47.79c0.64-.47,1.27-0.94,1.92-1.4a1,1,0,0,1,1.18,0,3.56,3.56,0,0,1,1.69,2c0.35,1.1.65,2.22,1,3.33A14.4,14.4,0,0,0,116,56.45l-1.81,1.05Zm-2.8.81c1.12,0,2.4-1.12,2.26-2.11a11,11,0,0,0-.6-2.06,0.51,0.51,0,0,0-.39-0.26,3,3,0,0,0-2.83,1.46C107.79,54.49,108.81,56.41,110,56.42Z" transform="translate(-22.12 -20.27)"/><path class="cls-1" d="M116.94,27.71c0,0.57,0,1.09,0,1.61,0,2,0,4,0,5.94a2.08,2.08,0,0,0,1.4,1.8,4.26,4.26,0,0,0,.94-2.86l1.6,0.24a3.06,3.06,0,0,1-6.1.53c-0.07-2.16,0-4.32,0-6.48,0-.23,0-0.47,0-0.87l-2.43.4c-0.16-.85.06-1.15,1-1.15h1.46c-0.25-1.08.53-1.39,1.24-1.76,0.45-.24.89-0.49,1.44-0.8l-0.62,2.59c1.51-.16,2.94.33,4.36-0.7a1.76,1.76,0,0,1-.13.58,2.53,2.53,0,0,1-1.93.94h-2.21Z" transform="translate(-22.12 -20.27)"/><path class="cls-1" d="M104.76,34.2l1.69,0.37A2.45,2.45,0,0,1,104.74,37a24.67,24.67,0,0,1-3,.62,3.43,3.43,0,0,1-3.24-1.29,5.6,5.6,0,0,1,2-9.12c0.48-.19,1-0.3,1.47-0.51,1.74-.76,3,0.19,4.34,1.13l-1.3,1c-1-.54-2-1.08-3-1.52a1.38,1.38,0,0,0-1,.06,2.68,2.68,0,0,0-1.45,1.54,6.08,6.08,0,0,0,1.24,6.92,9.56,9.56,0,0,0,1.71,1.07,0.88,0.88,0,0,0,1.22-.3,8.86,8.86,0,0,0,.81-1.51A4.5,4.5,0,0,0,104.76,34.2Z" transform="translate(-22.12 -20.27)"/><path class="cls-1" d="M138.49,56.08a2.71,2.71,0,0,0,3-.62,1.54,1.54,0,0,1,.06.65,2,2,0,0,1-1.76,1.05c-1.1,0-2.2,0-3.36,0V56.47c0-2.84,0-5.69,0-8.53a19.66,19.66,0,0,0-.4-3.2,3,3,0,0,0-.69-0.92l2.57-.73a14.25,14.25,0,0,1,.69,4.09c0,2.82-.07,5.65-0.1,8.47C138.48,55.79,138.49,55.95,138.49,56.08Z" transform="translate(-22.12 -20.27)"/><path class="cls-1" d="M155.29,46.57l2.86-.47c0,0.14,0,.26,0,0.38,0,3.3,0,6.6,0,9.9a0.46,0.46,0,0,1-.5.56c-0.55.06-1.09,0.2-1.68,0.31,0-.93,0-1.81,0-2.68,0-2.18,0-4.36,0-6.54a1,1,0,0,0-.75-1.24Z" transform="translate(-22.12 -20.27)"/><path class="cls-1" d="M108.9,37.41c0-.92,0-1.79,0-2.66,0-2.14,0-4.28,0-6.42a1.18,1.18,0,0,0-.76-1.44l0-.16,2.9-.49v0.61c0,3.18,0,6.36,0,9.53a0.57,0.57,0,0,1-.61.72A14.63,14.63,0,0,0,108.9,37.41Z" transform="translate(-22.12 -20.27)"/><path class="cls-1" d="M200.73,57.24c0-.93,0-1.81,0-2.68,0-2.16,0-4.33,0-6.49,0-.53.08-1.18-0.79-1.3l0.08-.2,2.87-.49c0,0.2,0,.37,0,0.54,0,3.21,0,6.41,0,9.62,0,0.42,0,.66-0.55.7A13.07,13.07,0,0,0,200.73,57.24Z" transform="translate(-22.12 -20.27)"/><path class="cls-1 upper" d="M88.26,20.27H25.89s-3.75,1.21-3.75,3.4v5.63S23,31.6,24.2,31.91s25.56,7.31,25.56,7.31l11.13,4.06a1.26,1.26,0,0,0,.66.19,2.2,2.2,0,0,0,1-.87l0.13-.34s-0.5-8.5,8.31-9.5c0,0,4.19.16,5.72,2.09S79.6,38,79.6,42.07l0,2.53A1.22,1.22,0,0,0,81,45.7c1.31-.09,7.22-1.12,8.69-2.44a8.81,8.81,0,0,0,1.59-1.59,5.81,5.81,0,0,0,.19-1V24S91.14,20.78,88.26,20.27Z" transform="translate(-22.12 -20.27)"/></svg>
