<svg id="Layer_1" data-name="Layer 1" xmlns="http://www.w3.org/2000/svg" viewBox="0 0 150.14 31.9"><defs><style>.cls-1,.cls-2,.cls-3{fill:#333;}.cls-2,.cls-3{stroke:#000;stroke-miterlimit:3.86;}.cls-2{stroke-width:0.12px;}.cls-3{stroke-width:0.06px;}</style></defs><title>smart</title><path class="cls-1" d="M50.79,24.78c3.22,2.08,7.85,8.58,9.09,12.17C58.64,40.54,54,47,50.79,49.12V24.78" transform="translate(-28.58 -19.75)"/><path class="cls-2 yellow" d="M50.79,24.78c3.22,2.08,7.85,8.58,9.09,12.17C58.64,40.54,54,47,50.79,49.12V24.78Z" transform="translate(-28.58 -19.75)"/><path class="cls-1" d="M43.91,29.39a10.11,10.11,0,0,1,5.51,1.87V23.94a11.39,11.39,0,0,0-6.11-1.66,14.65,14.65,0,1,0,0,29.31A11.34,11.34,0,0,0,49.42,50V42.61a10.13,10.13,0,0,1-5.51,1.89,7.56,7.56,0,1,1,0-15.11" transform="translate(-28.58 -19.75)"/><path class="cls-2 grey" d="M43.91,29.39a10.11,10.11,0,0,1,5.51,1.87V23.94a11.39,11.39,0,0,0-6.11-1.66,14.65,14.65,0,1,0,0,29.31A11.34,11.34,0,0,0,49.42,50V42.61a10.13,10.13,0,0,1-5.51,1.89A7.56,7.56,0,1,1,43.91,29.39Z" transform="translate(-28.58 -19.75)"/><path class="cls-1" d="M153,35V50h5.13V35.28a3.71,3.71,0,0,1,3.71-3.7h2.37V26.68h-2.62A8.65,8.65,0,0,0,153,35" transform="translate(-28.58 -19.75)"/><path class="cls-2" d="M153,35V50h5.13V35.28a3.71,3.71,0,0,1,3.71-3.7h2.37V26.68h-2.62A8.65,8.65,0,0,0,153,35Z" transform="translate(-28.58 -19.75)"/><path class="cls-1" d="M175.67,45a3.72,3.72,0,0,1-3.69-3.7V31.55h5.67v-4.9H172V22h-5.15V41.62a8.68,8.68,0,0,0,8.58,8.32H178V45h-2.37" transform="translate(-28.58 -19.75)"/><path class="cls-2" d="M175.67,45a3.72,3.72,0,0,1-3.69-3.7V31.55h5.67v-4.9H172V22h-5.15V41.62a8.68,8.68,0,0,0,8.58,8.32H178V45h-2.37Z" transform="translate(-28.58 -19.75)"/><path class="cls-1" d="M114,26.22a8.51,8.51,0,0,0-6.56,3.11,8.52,8.52,0,0,0-6.58-3.11,8.42,8.42,0,0,0-8.42,8V50h5.16V34.82a3.64,3.64,0,0,1,3.62-3.75c1.67,0,3.65,1.14,3.65,4.35V50h5.14V35.41c0-3,1.88-4.34,3.63-4.34a3.52,3.52,0,0,1,3.64,3.75V50h5.14V34.19a8.44,8.44,0,0,0-8.42-8" transform="translate(-28.58 -19.75)"/><path class="cls-2" d="M114,26.22a8.51,8.51,0,0,0-6.56,3.11,8.52,8.52,0,0,0-6.58-3.11,8.42,8.42,0,0,0-8.42,8V50h5.16V34.82a3.64,3.64,0,0,1,3.62-3.75c1.67,0,3.65,1.14,3.65,4.35V50h5.14V35.41c0-3,1.88-4.34,3.63-4.34a3.52,3.52,0,0,1,3.64,3.75V50h5.14V34.19A8.44,8.44,0,0,0,114,26.22Z" transform="translate(-28.58 -19.75)"/><path class="cls-1" d="M137.58,26.27a11.81,11.81,0,0,0-11.88,12c0,7.05,5,12.15,12,12.15a8.91,8.91,0,0,0,6.63-2.68V50h5.14V38.38c0-7-5-12.11-11.87-12.11m0.07,19.23a7.14,7.14,0,1,1,6.95-7.14A6.75,6.75,0,0,1,137.65,45.51Z" transform="translate(-28.58 -19.75)"/><path class="cls-2" d="M137.58,26.27a11.81,11.81,0,0,0-11.88,12c0,7.05,5,12.15,12,12.15a8.91,8.91,0,0,0,6.63-2.68V50h5.14V38.38C149.45,31.36,144.44,26.27,137.58,26.27Zm0.07,19.23a7.14,7.14,0,1,1,6.95-7.14A6.75,6.75,0,0,1,137.65,45.51Z" transform="translate(-28.58 -19.75)"/><path class="cls-1" d="M80.5,36c-5-.58-6-1.47-6-2.83,0-2.15,3.26-2.43,4.69-2.43a10.43,10.43,0,0,1,6.64,2.46L89.13,30a15.43,15.43,0,0,0-10.67-3.69C72.3,26.27,69,30,69,33.51c0,4.16,3.23,6.54,9.89,7.26,2.8,0.31,4.91.69,4.91,2.64,0,3.59-9,3.23-12.62-.76l-3.57,3.59a16.23,16.23,0,0,0,10.82,4.24c7.5,0,10.91-3.68,10.91-7.11,0-4.31-2.8-6.65-8.84-7.34" transform="translate(-28.58 -19.75)"/><path class="cls-2" d="M80.5,36c-5-.58-6-1.47-6-2.83,0-2.15,3.26-2.43,4.69-2.43a10.43,10.43,0,0,1,6.64,2.46L89.13,30a15.43,15.43,0,0,0-10.67-3.69C72.3,26.27,69,30,69,33.51c0,4.16,3.23,6.54,9.89,7.26,2.8,0.31,4.91.69,4.91,2.64,0,3.59-9,3.23-12.62-.76l-3.57,3.59a16.23,16.23,0,0,0,10.82,4.24c7.5,0,10.91-3.68,10.91-7.11C89.34,39.06,86.54,36.73,80.5,36Z" transform="translate(-28.58 -19.75)"/><path class="cls-1" d="M177.52,22.52a1.92,1.92,0,0,0-.42-0.65,0.58,0.58,0,0,0,.4-0.56,0.59,0.59,0,0,0-.64-0.59H175.7V21H176v1.48h-0.3v0.32h1V22.52h-0.33V21.94h0.31a1.53,1.53,0,0,1,.64.9h0.5V22.52h-0.27M176.34,21h0.51a0.26,0.26,0,0,1,.3.28,0.35,0.35,0,0,1-.42.31h-0.39V21Z" transform="translate(-28.58 -19.75)"/><path class="cls-3" d="M177.52,22.52a1.92,1.92,0,0,0-.42-0.65,0.58,0.58,0,0,0,.4-0.56,0.59,0.59,0,0,0-.64-0.59H175.7V21H176v1.48h-0.3v0.32h1V22.52h-0.33V21.94h0.31a1.53,1.53,0,0,1,.64.9h0.5V22.52h-0.27ZM176.34,21h0.51a0.26,0.26,0,0,1,.3.28,0.35,0.35,0,0,1-.42.31h-0.39V21Z" transform="translate(-28.58 -19.75)"/><path class="cls-1" d="M176.69,19.78a2,2,0,1,0,2,2,2,2,0,0,0-2-2m0,3.62a1.62,1.62,0,1,1,1.62-1.62A1.62,1.62,0,0,1,176.69,23.4Z" transform="translate(-28.58 -19.75)"/><path class="cls-3" d="M176.69,19.78a2,2,0,1,0,2,2A2,2,0,0,0,176.69,19.78Zm0,3.62a1.62,1.62,0,1,1,1.62-1.62A1.62,1.62,0,0,1,176.69,23.4Z" transform="translate(-28.58 -19.75)"/></svg>
