<svg id="Layer_1" data-name="Layer 1" xmlns="http://www.w3.org/2000/svg" viewBox="0 0 289 96"><defs><style>.cls-1{fill:#333;fill-rule:evenodd;}</style></defs><title>twitch</title><path class="cls-1" d="M361,120v47l-26,18H319v-8l-12,8H293v-8l-9,8H258l-8-8-2,8-22.95-.06L216,177l-1,8-26-.06L188,177l-7,7.94L141,185l-8-4v4H111L87,170,72,155V89h31l15,15h68V89h56v15h14v8l8-8h17l15-15h32v15h17Zm-250-9H97V96H79v56l11,12h21V145H97V129h14V111Zm75,0H168v34h-7V111H144v34h-7V111H118v53h56l12-12V111Zm24,0H193v53h17V111Zm0-15H193v8h17V96Zm39,15H235V96H217v56l11,12h21V145H235V129h14V111Zm46,0H267l-11,11v30l12,12h27V145H275V129h20V111Zm59,11-12-11H321V96H302v68h19V129h14v35h19V122Z" transform="translate(-72 -89)"/></svg>