<svg id="logo-typescript" xmlns="http://www.w3.org/2000/svg" viewBox="0 0 428.66 129.39"><defs><style>.cls-1{fill:#333;}.cls-2{fill:none;}</style></defs><title>typescript</title><path class="cls-1" d="M180.56,67.05H166v45.07h-5.91V67.05H145.56V61.7h35Zm23,9.07L187,117.88q-4.42,11.18-12.45,11.18a12.88,12.88,0,0,1-3.76-.46v-5.17a10.72,10.72,0,0,0,3.41.63q4.37,0,6.54-5.2l2.88-6.82L169.5,76.12h6.4l9.74,27.7c.12.35.36,1.27.74,2.74h.18c.12-.56.35-1.45.7-2.67l10.3-27.77Zm9.43,30.8h-.14v21.76h-5.77V76.12h5.77v6.33H213a13.63,13.63,0,0,1,12.45-7.17q7,0,10.86,4.83t3.9,13q0,9-4.39,14.47a14.44,14.44,0,0,1-12,5.43,12.06,12.06,0,0,1-10.88-6.09Zm-.14-14.52v5a10.75,10.75,0,0,0,2.9,7.58,10.35,10.35,0,0,0,14.64.16,11.86,11.86,0,0,0,.94-1.06q3-4,3-11.14,0-6-2.78-9.42A9.2,9.2,0,0,0,224,80.11a10.23,10.23,0,0,0-8.09,3.5,12.78,12.78,0,0,0-3.15,8.79Zm62.33,3.16H249.7q.13,6,3.23,9.28a11.17,11.17,0,0,0,8.51,3.27,17.73,17.73,0,0,0,11.18-4v5.41Q267.88,113,260.07,113q-7.63,0-12-4.9t-4.36-13.8q0-8.4,4.76-13.69a15.28,15.28,0,0,1,11.83-5.29q7.06,0,10.93,4.57t3.87,12.69v3h.08Zm-5.91-4.89c0-3.33-.83-5.92-2.41-7.77a8.19,8.19,0,0,0-6.59-2.78A9.34,9.34,0,0,0,253.34,83a13.3,13.3,0,0,0-3.52,7.63Zm11,19.41v-7a12.52,12.52,0,0,0,2.62,1.9,20.07,20.07,0,0,0,3.22,1.42,24.9,24.9,0,0,0,3.39.9,17.53,17.53,0,0,0,3.15.32c3.32,0,5.81-.67,7.45-2a7.13,7.13,0,0,0,2.46-5.82,7.32,7.32,0,0,0-.82-3.55,9.75,9.75,0,0,0-2.27-2.76A23.13,23.13,0,0,0,296,91.1l-4.26-2.41q-2.26-1.27-4.5-2.71a19.38,19.38,0,0,1-3.63-3,12.65,12.65,0,0,1,1.71-18.83,15.89,15.89,0,0,1,5.13-2.46,21.6,21.6,0,0,1,5.87-.81c4.55,0,7.87.6,9.94,1.79v6.64a16.94,16.94,0,0,0-10.49-3.09,16.21,16.21,0,0,0-3.54.4,9.51,9.51,0,0,0-3.15,1.32,7.25,7.25,0,0,0-2.25,2.36,6.67,6.67,0,0,0-.87,3.52,7.82,7.82,0,0,0,.66,3.34,8,8,0,0,0,1.95,2.57A19.32,19.32,0,0,0,291.75,82c1.23.73,2.65,1.52,4.26,2.39s3.22,1.83,4.7,2.81a21.35,21.35,0,0,1,3.89,3.27,14.66,14.66,0,0,1,2.65,4,12.11,12.11,0,0,1,1,5,13.76,13.76,0,0,1-1.33,6.31,11.68,11.68,0,0,1-3.6,4.2,15,15,0,0,1-5.23,2.34,26.21,26.21,0,0,1-6.24.72,22.28,22.28,0,0,1-2.7-.19c-1.07-.13-2.17-.32-3.28-.56a27.24,27.24,0,0,1-3.17-.91,10.63,10.63,0,0,1-2.54-1.28Zm58.65.39a18.75,18.75,0,0,1-9.84,2.5,16.32,16.32,0,0,1-12.43-5q-4.72-5-4.73-13,0-8.89,5.1-14.29t13.61-5.4A18.89,18.89,0,0,1,339,77V83a14.63,14.63,0,0,0-8.58-2.81,11.58,11.58,0,0,0-9.05,4,15.14,15.14,0,0,0-3.53,10.39q0,6.39,3.32,10a11.46,11.46,0,0,0,8.91,3.66,14.47,14.47,0,0,0,8.86-3.13v5.47h0ZM361.23,82a7.13,7.13,0,0,0-4.47-1.13,7.36,7.36,0,0,0-6.17,3.48c-1.65,2.32-2.47,5.48-2.48,9.49v18.35h-5.77v-36h5.77v7.42h.14A12.49,12.49,0,0,1,352,77.64a8.61,8.61,0,0,1,5.66-2.13,9.4,9.4,0,0,1,3.45.49v6Zm6.62-15a3.65,3.65,0,0,1-2.64-1,3.53,3.53,0,0,1-1.09-2.67,3.69,3.69,0,0,1,3.73-3.76,3.74,3.74,0,0,1,2.72,6.37l0,0a3.76,3.76,0,0,1-2.8,1.11Zm2.71,45.17h-5.77v-36h5.77Zm9.3-5.2h-.14v21.76H374V76.12h5.77v6.33h.14a13.63,13.63,0,0,1,12.45-7.17q7,0,10.86,4.83t3.9,13q0,9-4.39,14.47a14.44,14.44,0,0,1-12,5.43,12.07,12.07,0,0,1-10.83-6.09Zm-.14-14.52v5a10.75,10.75,0,0,0,2.9,7.58,10.35,10.35,0,0,0,14.64.16,11.86,11.86,0,0,0,.94-1.06q3-4,3-11.14,0-6-2.78-9.42a9.2,9.2,0,0,0-7.52-3.41,10.23,10.23,0,0,0-8.09,3.5,12.8,12.8,0,0,0-3.1,8.79Zm48.94,19.37a11.12,11.12,0,0,1-5.38,1.12q-9.45,0-9.46-10.55V81h-6.19V76.12h6.19V67.33l5.74-1.86V76.12h9.07V81h-9.07v20.28c0,2.41.41,4.14,1.23,5.17a4.92,4.92,0,0,0,4.08,1.55,6,6,0,0,0,3.76-1.2v4.93Z"/><path class="cls-1" d="M0,129.39V0H129.39V129.39Zm99.32-10.48a34,34,0,0,0,3.64-.19,22.82,22.82,0,0,0,7.27-2.14,15.13,15.13,0,0,0,7.81-8.12,18.37,18.37,0,0,0,1-9.2,15.53,15.53,0,0,0-6.38-11,56.19,56.19,0,0,0-10.31-5.6c-2.09-1-4.2-1.9-6.23-3A5.43,5.43,0,0,1,93,74.05a4.59,4.59,0,0,1,1.49-3.17C96,69.46,98,69.37,99.94,69.59a7.08,7.08,0,0,1,5.12,3.24c.32.46.68.9,1,1.34a.46.46,0,0,0,.63.16.18.18,0,0,0,.07,0l8.38-5.59a.55.55,0,0,0,.3-.72.57.57,0,0,0-.12-.18c-.5-.69-1-1.4-1.5-2.07a16.49,16.49,0,0,0-8.46-6,17.46,17.46,0,0,0-4.87-.73,46,46,0,0,0-5.38.07,16.54,16.54,0,0,0-6.93,2.43A14.59,14.59,0,0,0,81.09,72,30,30,0,0,0,81,76.5a13.36,13.36,0,0,0,1.47,6.07,17.79,17.79,0,0,0,8,8c2.95,1.56,6,2.88,9,4.3a31.67,31.67,0,0,1,5.4,2.93,5.54,5.54,0,0,1,1.27,7.32,6.66,6.66,0,0,1-3.52,2.43,12.23,12.23,0,0,1-5.7.43,10.9,10.9,0,0,1-4.94-1.85,18.16,18.16,0,0,1-4.54-4.87c-.17-.26-.31-.47-.69-.25l-9,5.25a.54.54,0,0,0-.33.69.62.62,0,0,0,.12.19A21.43,21.43,0,0,0,86,115.72a26.49,26.49,0,0,0,13.28,3.18ZM57.17,94.26V71.15c0-.81,0-.81.84-.81h15.2c.83,0,.84,0,.83-.85,0-3.09-.07-6.17-.09-9.26a.55.55,0,0,0-.39-.66.57.57,0,0,0-.26,0c-6,0-12-.06-18-.06-8.61,0-17.22,0-25.83.07-1.17,0-1.18,0-1.19,1.17v8.88c0,.71,0,.71.73.71h15.2c.86,0,.86,0,.86.85V117.4c0,.79,0,.79.78.79H56.38c.78,0,.79,0,.79-.77Z"/><path class="cls-2" d="M99.32,118.9A26.65,26.65,0,0,1,86,115.74a21.43,21.43,0,0,1-8.54-8.63.53.53,0,0,1,0-.76.47.47,0,0,1,.19-.12q4.53-2.61,9-5.25c.37-.22.52,0,.69.25a18.16,18.16,0,0,0,4.54,4.87A10.9,10.9,0,0,0,96.81,108a12.23,12.23,0,0,0,5.7-.43,6.66,6.66,0,0,0,3.52-2.43,5.54,5.54,0,0,0-1.27-7.32,31.67,31.67,0,0,0-5.4-2.93c-3-1.42-6.09-2.74-9-4.3a17.79,17.79,0,0,1-8-8,13.36,13.36,0,0,1-1.47-6.07A30,30,0,0,1,81,72a14.59,14.59,0,0,1,7.09-10.46A16.54,16.54,0,0,1,95,59.08a46,46,0,0,1,5.38-.07,17.46,17.46,0,0,1,4.87.73,16.49,16.49,0,0,1,8.46,6c.52.68,1,1.39,1.5,2.07a.54.54,0,0,1,0,.78.57.57,0,0,1-.18.12q-4.2,2.78-8.38,5.59a.46.46,0,0,1-.65,0l-.05-.07c-.35-.44-.7-.88-1-1.34a7.08,7.08,0,0,0-5.12-3.24c-2-.21-3.9-.13-5.49,1.29a4.59,4.59,0,0,0-1.49,3.17,5.43,5.43,0,0,0,3.16,5.61c2,1.08,4.13,2,6.23,3a56.19,56.19,0,0,1,10.31,5.6,15.53,15.53,0,0,1,6.38,11,18.37,18.37,0,0,1-1,9.2,15.13,15.13,0,0,1-7.81,8.12,22.82,22.82,0,0,1-7.27,2.14C101.76,118.82,100.56,118.82,99.32,118.9Z"/><path class="cls-2" d="M57.17,94.26v23.16c0,.77,0,.77-.79.77H45.87c-.78,0-.78,0-.78-.79V71.19c0-.85,0-.85-.86-.85H29c-.73,0-.73,0-.73-.71V60.75c0-1.17,0-1.17,1.19-1.17,8.61,0,17.22-.06,25.83-.07,6,0,12,0,18,.06A.54.54,0,0,1,74,60a.57.57,0,0,1,0,.26c0,3.09.06,6.17.09,9.26,0,.85,0,.85-.83.85H58c-.84,0-.84,0-.84.81Z"/></svg>