<svg id="Layer_1" data-name="Layer 1" xmlns="http://www.w3.org/2000/svg" viewBox="0 0 566.84 139.14"><title>usaa</title><path d="M635,455c-1.92-.46-3.84-.94-5.77-1.36-16.83-3.64-27.41-15.27-29.07-33.05-.93-9.93-.92-19.95-1-29.93-.15-17,0-34,0-51.3h21.78v5.2c0,21.32-.11,42.65.08,64a46.58,46.58,0,0,0,1.91,12.75c3.28,11,11.19,16.28,22.52,15.73s18.52-6.72,20.76-18a52.13,52.13,0,0,0,.91-9.91c.08-21.33,0-42.65,0-64v-5.81h19.28c.11,1.57.28,3,.28,4.48,0,22.16.24,44.33-.13,66.49a65.23,65.23,0,0,1-3.17,18.57c-4.48,13.86-14.53,21.89-28.66,25-1.26.28-2.47.76-3.71,1.14Z" transform="translate(-400.95 -315.86)"/><path d="M724,455c-5.86-1-11.72-2.05-17.59-2.95-3.18-.48-4.36-2.06-4.46-5.32-.18-5.62-.91-11.23-1.38-16.61,7.16,2.21,14,5.14,21,6.22a51.48,51.48,0,0,0,18.59-.8c5.63-1.25,9.37-5.84,9.69-12s-2.77-10.57-8-13.35c-6.17-3.26-12.53-6.17-18.77-9.32-9.17-4.63-17-10.62-20-21.08-5.63-19.53,6.89-37.62,28.74-41.58,11.47-2.08,22.5-.42,33.3,3.73,2.5,1,3.74,2.17,3.62,5.05-.23,5.26-.07,10.53-.07,16.7-2.11-1.36-3.46-2.21-4.79-3.08a36.78,36.78,0,0,0-27.16-5.74c-7.28,1.25-12,5.33-13,11.29-1.24,6.86,2.16,11.76,7.62,15,6,3.53,12.41,6.39,18.73,9.37,9.85,4.66,17.94,11,20.91,22.05,5.09,18.91-7.11,36.95-27.73,41.26-1.43.3-2.82.78-4.23,1.18Z" transform="translate(-400.95 -315.86)"/><path d="M556,455q-23.71-13.65-47.4-27.34c-1.22-.7-2.68-1.85-3-3.06-1.5-5.58-2.63-11.25-4.12-17.85,10.73,6.26,20.59,12,30.44,17.76,4.73,2.76,9.47,5.51,14.17,8.34,6.68,4,13.32,8.1,22.33,2.07-1.79,7.8,3.36,15.61-5.41,20.08Z" transform="translate(-400.95 -315.86)"/><path d="M967.74,452.22c-7,0-13.94.11-20.87-.13-1,0-2.39-1.58-2.84-2.72-1.78-4.48-3-9.18-5-13.58a5.79,5.79,0,0,0-4.15-3c-11.16-.24-22.33,0-33.5-.2-2.91,0-4.13,1.14-4.9,3.73-1.24,4.14-2.89,8.16-4.13,12.29-.79,2.64-2.13,3.72-5,3.68q-16.49-.21-33,0c-2.85,0-4.24-1-5-3.63-1.24-4.14-2.94-8.15-4-12.33-.78-3.09-2.44-3.78-5.36-3.74-10.83.14-21.66.12-32.49,0-2.7,0-4.29.6-5,3.47-1,3.85-2.87,7.48-3.79,11.35-1,4.07-3.2,5.15-7.14,4.89-4.95-.33-9.95-.08-15.75-.08.72-2.12,1.19-3.62,1.74-5.08,11.58-31,23-62.1,34.93-93,2.15-5.55.93-9.9-1.83-15.43,7.88,0,14.94-.2,22,.19,1.18.07,2.68,2.52,3.26,4.14q17.11,48.19,34,96.46c.54,1.54,1.15,3.06,2.07,5.51.91-1.85,1.53-2.86,1.94-4,11-29.44,22.2-58.83,32.86-88.4,1.41-3.91.19-8.78.19-13.94,5.8,0,12.87-.09,19.93.12.87,0,2.11,1.47,2.48,2.5q19.26,54.33,38.34,108.7A9,9,0,0,1,967.74,452.22ZM824.65,372.71c-5.49,15.59-10.45,29.7-15.48,44h29.32C833.91,402.18,829.51,388.16,824.65,372.71Zm78.64,44.18h29.38c-4.57-14.48-9-28.54-13.43-42.6l-1.09.17Z" transform="translate(-400.95 -315.86)"/><path d="M401,353.14c0-4.18,0-7.67,0-11.15,0-5.73,1.77-8.07,7.54-7.8a26.1,26.1,0,0,1,11.21,3.27c14.06,7.88,27.88,16.18,42.46,24.71,1.66-6.52,3.23-12.56,4.73-18.62,1.77-7.1,3.6-14.18,5.17-21.32.95-4.38,2.93-6.79,7.83-6.31,3.63.35,7.37-.31,11,.15,5.77.74,11.65,1.47,17.13,3.29,4.46,1.48,3.83,6,3.5,8.95l-12.06,1.05c1.23,7.71,1.95,13.8,9.31,17.66,13.38,7,26.26,15,39.25,22.8,6.17,3.68,12.29,6.1,20,1.22,0,5.6.17,10.31-.13,15-.07,1.09-1.53,2.43-2.68,3.07-4.67,2.59-9.41,1.9-13.8-.65q-30.21-17.52-60.27-35.31a7.65,7.65,0,0,1-3-4.2c-1.33-4.59-2.27-9.29-4.35-14.07-3.82,16.39-7.63,32.78-11.55,49.63-1.73-.87-3-1.44-4.28-2.16-15.23-8.88-30.53-17.64-45.62-26.76C415.62,351.53,409.07,348.56,401,353.14Z" transform="translate(-400.95 -315.86)"/><path d="M490,357.2c13.68,8,26.59,15.51,39.48,23.05,6.18,3.62,12.41,7.15,18.5,10.9s12.29,6.12,20,1.24c0,5.64.18,10.36-.12,15.05-.08,1.11-1.54,2.49-2.7,3.11-4.88,2.57-9.72,1.69-14.27-1Q523.9,393.9,497,378a6.2,6.2,0,0,1-2.86-3.1C492.65,369.38,491.48,363.72,490,357.2Z" transform="translate(-400.95 -315.86)"/><path d="M495.69,382.07c2.47,1.36,4,2.18,5.54,3.07l46.54,27.24c8.93,5.22,10.17,5.36,20.22,2.22,0,4.74.15,9.33,0,13.9-.13,2.91-5.2,5.64-9.6,4.9a25.76,25.76,0,0,1-8.38-3c-15.73-9-31.36-18.25-47-27.47-1.2-.71-2.65-1.81-3-3C498.45,394.38,497.26,388.73,495.69,382.07Z" transform="translate(-400.95 -315.86)"/><path d="M401,374.86c0-4.4,0-7.71,0-11,0-6.32,3.62-9.6,10-8.48a26.26,26.26,0,0,1,8.3,3.19c16,9.22,31.89,18.67,47.9,27.87,2.87,1.65,4.19,3.17,2.92,6.61-1.13,3.09-1.56,6.44-2.44,10.31-1.87-1-3.44-1.74-4.94-2.62-14.08-8.23-28.2-16.39-42.2-24.75C414.5,372.35,408.52,370.05,401,374.86Z" transform="translate(-400.95 -315.86)"/><path d="M463,422.23c-14.43-8.42-28.41-16.38-42.17-24.7-6.22-3.76-12.3-5.75-19.84-1.52,0-5.26-.16-9.83.11-14.37a4.93,4.93,0,0,1,2.35-3.29c4.6-2.53,9.39-2.15,13.8.4Q440.58,392.21,463.7,406c1.1.66,2.28,2.61,2.11,3.77C465.23,413.78,464.07,417.74,463,422.23Z" transform="translate(-400.95 -315.86)"/><path d="M462,426.18c-1.17,5-2.25,9.63-3.45,14.8-12.41-7.25-24.53-14.13-36.44-21.36-6.55-4-13-6.83-21.06-2.3,0-5.16-.16-9.61.1-14a5.09,5.09,0,0,1,2.21-3.38,12,12,0,0,1,12.85-.28C431.46,408.31,446.62,417.26,462,426.18Z" transform="translate(-400.95 -315.86)"/></svg>