<svg id="a7215909-de8f-44fa-a1d4-8d27ddf024bf" data-name="Layer 1" xmlns="http://www.w3.org/2000/svg" viewBox="0 0 909 310.92"><defs><style>.a2e92d9b-8a08-468d-a74d-4b214a7d9737{fill:#41b883;}.a3807102-9d5f-47d9-a811-05203da4e64b{fill:#35495e;}</style></defs><title>vue</title><path class="a2e92d9b-8a08-468d-a74d-4b214a7d9737" d="M531.39,211.36h72.09L423.24,522.28,243,211.36H380.89l42.35,72.1,41.46-72.1Z" transform="translate(-243 -211.36)"/><path class="a2e92d9b-8a08-468d-a74d-4b214a7d9737" d="M243,211.36,423.24,522.28,603.48,211.36H531.39L423.24,397.91l-109-186.55Z" transform="translate(-243 -211.36)"/><path class="a3807102-9d5f-47d9-a811-05203da4e64b" d="M314.2,211.36l109,187.45L531.39,211.36H464.7l-41.46,72.1-42.35-72.1Z" transform="translate(-243 -211.36)"/><path d="M1152,419c-.22.25-.57.47-.63.76-4.11,17.5-16.79,23.86-33.09,24.93-11.08.74-22-.64-32-6a29.18,29.18,0,0,1-7.09-5.41c-3.24-3.39-3.07-7.92,0-11.28,3.32-3.69,6.27-1.5,9.16.65,10.66,7.9,22.52,9.45,35.14,6.55,6-1.37,10.43-4.88,11.35-11.21s-1.23-11.74-6.65-15.14a70,70,0,0,0-12.64-5.82c-6.23-2.33-12.73-4-18.91-6.42-9.88-3.91-16.42-10.86-17.08-21.93s3-20.7,12.48-27.3c12.83-9,39.1-8.88,52-.09,3.78,2.56,5,5.59,2.68,9.77-2.39,4.39-5,5.5-9.83,3.3-8.82-4-17.81-6.54-27.57-4.36-7.69,1.73-13.07,7.36-13.65,14-.55,6.36,2.37,10.84,8,13.06,7.4,2.93,15.06,5.25,22.66,7.66,12.71,4,22.42,10.93,24.73,25.18.06.39.65.71,1,1.06Z" transform="translate(-243 -211.36)"/><path d="M708.53,415.66q3.76-12.84,7.54-25.68,15.51-52.69,31-105.41c1.08-3.7,2.93-7.33,6.71-6.83s7.56,2.81,10.69,5.19c1.07.82.71,4.39.09,6.43q-19.9,65.47-40,130.87c-1.56,5.1-3,10.21-4.64,15.3-2,6.39-5.8,9.07-12.62,9-6.49-.07-9.93-2.66-11.94-9.16q-11.47-37.23-22.91-74.47-11-35.81-22-71.6c-1.82-5.93-.19-8.85,5.94-10.82s9.68-.15,11.46,5.82q18.82,63.18,37.62,126.38c.51,1.71,1.12,3.39,1.69,5.08Z" transform="translate(-243 -211.36)"/><path d="M934.55,394.33c-8.33,0-16.66.1-25-.05-3.12,0-4.41.87-4.53,4.22-.6,16.08,8.39,27.48,24.27,30.49a42.21,42.21,0,0,0,31.54-6.16c5.17-3.26,9-1.64,11.16,3.64a6.25,6.25,0,0,1-2.84,8.23c-6,3.3-12.27,6.8-18.86,8.47a56.29,56.29,0,0,1-40.37-4.49c-14.14-7.25-22.17-18.9-22.86-35-.39-9.15-.57-18.34-.14-27.48.82-17.5,10-29.81,25.55-37,16.34-7.54,32.2-5.75,46.67,5.06,11.24,8.39,16.2,20,15.81,33.91-.31,11.09-5.36,16.15-16.41,16.4-8,.18-16,0-24,0Zm-6-11.56v-.47c7.81,0,15.62.09,23.42,0,4.06-.07,5.94-2.45,6-6.45.11-8.72-3.14-15.93-10-21.29a27.3,27.3,0,0,0-30.48-2A26.34,26.34,0,0,0,905,379.91c.19,1.11,2.28,2.68,3.54,2.73C915.22,382.91,921.88,382.77,928.53,382.77Z" transform="translate(-243 -211.36)"/><path d="M864.07,374.23c0,9,.13,18,0,27-.41,23-18.17,41.58-41.39,43.58-21.87,1.88-43-14.39-47.09-36.3a44.91,44.91,0,0,1-.56-7.95q-.07-27.48,0-55c0-6.19,3.06-9.38,8.93-9.4s9,3.36,9,9.42c0,18.32-.08,36.64.06,55,.08,11.24,5,20.05,15,25.27,17.33,9,37.77-4.28,38-24.74.24-18.48,0-37,.06-55.46,0-6.87,4-10.29,10.79-9.39,4.6.61,7.11,3.28,7.15,8C864.13,354.24,864.08,364.23,864.07,374.23Z" transform="translate(-243 -211.36)"/><path d="M1037.32,403q0-28.5,0-57c0-7,2.55-9.83,8.84-9.86s9.2,2.79,9.19,9.58c-.06,37.49-.07,75-.3,112.47a46.3,46.3,0,0,1-6.89,24.73c-5.38,8.57-13.68,11.87-23.24,12.43-5.5.32-9.28-2.94-9.64-7.4-.38-4.89,2.65-8,8.81-8.58s10-3.89,11.37-9.58a63.81,63.81,0,0,0,1.74-14.31c.2-17.5.08-35,.08-52.49Z" transform="translate(-243 -211.36)"/><path d="M1003.42,444.23A11.18,11.18,0,0,1,992,433a11.55,11.55,0,0,1,11.34-11.53,11.75,11.75,0,0,1,11.51,11.41A11.3,11.3,0,0,1,1003.42,444.23Z" transform="translate(-243 -211.36)"/><path d="M1046,285.15c6.26-.06,11.27,4.56,11.18,10.3-.08,5.42-5.13,10.07-11,10.11-6.06,0-11.19-4.75-11.19-10.45C1035,289.63,1039.89,285.21,1046,285.15Z" transform="translate(-243 -211.36)"/></svg>