<svg id="Capa_1" data-name="Capa 1" xmlns="http://www.w3.org/2000/svg" viewBox="0 0 430.12 430.12"><defs><style>.cls-1{fill:#333;}</style></defs><title>wordpress</title><path id="WordPress" class="cls-1" d="M39,262.06c0,118.79,96.27,215.06,215.06,215.06s215.06-96.27,215.06-215.06S372.82,47,254.06,47,39,143.3,39,262.06Zm16.57,0a198.09,198.09,0,0,1,17.19-80.78l94.68,259.4A198.48,198.48,0,0,1,55.57,262.06ZM254.06,460.54A198.7,198.7,0,0,1,198,452.48l59.57-173,61,167.13a17.93,17.93,0,0,0,1.4,2.7A197.42,197.42,0,0,1,254.06,460.54Zm160.41-202.2c11.32-28.32,15.11-51,15.11-71.08a147.68,147.68,0,0,0-1.37-20.42A198.53,198.53,0,0,1,353.85,433.6Zm-42.8-61C379.2,210.51,388,227.5,388,252q0,25.5-15.11,64.18l-19.81,66.12L281.4,169c12-.65,22.71-1.89,22.71-1.89,10.7-1.27,9.42-17-1.25-16.37,0,0-32.16,2.54-52.91,2.54-19.51,0-52.26-2.54-52.26-2.54-10.7-.59-11.94,15.75-1.27,16.37,0,0,10.15,1.24,20.85,1.89l30.89,84.73L204.73,384,132.43,169c12-.65,22.74-1.89,22.74-1.89,10.7-1.27,9.39-17-1.27-16.37,0,0-32.14,2.54-52.91,2.54-3.72,0-8.09-.1-12.76-0.23a198.38,198.38,0,0,1,299.85-37.34c-0.85-.07-1.7-0.17-2.55-0.17-19.54,0-33.34,17-33.34,35.21C352.19,167.12,361.62,181,371.67,197.3Z" transform="translate(-39 -47)"/></svg>